<?xml version="1.0" encoding="utf-8" standalone="no"?>
<!DOCTYPE svg PUBLIC "-//W3C//DTD SVG 1.1//EN"
  "http://www.w3.org/Graphics/SVG/1.1/DTD/svg11.dtd">
<!-- Created with matplotlib (http://matplotlib.org/) -->
<svg height="345.6pt" version="1.1" viewBox="0 0 460.8 345.6" width="460.8pt" xmlns="http://www.w3.org/2000/svg" xmlns:xlink="http://www.w3.org/1999/xlink">
 <defs>
  <style type="text/css">
*{stroke-linecap:butt;stroke-linejoin:round;}
  </style>
 </defs>
 <g id="figure_1">
  <g id="patch_1">
   <path d="M 0 345.6 
L 460.8 345.6 
L 460.8 0 
L 0 0 
z
" style="fill:#ffffff;"/>
  </g>
  <g id="axes_1">
   <g id="patch_2">
    <path clip-path="url(#p20478616c0)" d="M 89.915982 139.381994 
Q 90.782419 139.592477 90.562421 139.539033 
" style="fill:none;stroke:#000000;stroke-linecap:round;"/>
    <path clip-path="url(#p20478616c0)" d="M 87.1476 136.651301 
L 90.562421 139.539033 
L 86.203343 140.538251 
L 87.1476 136.651301 
z
" style="stroke:#000000;stroke-linecap:round;"/>
   </g>
   <g id="patch_3">
    <path clip-path="url(#p20478616c0)" d="M 89.915982 139.381994 
Q 193.844381 158.881699 296.673921 178.175229 
" style="fill:none;stroke:#000000;stroke-linecap:round;"/>
    <path clip-path="url(#p20478616c0)" d="M 293.11134 175.471895 
L 296.673921 178.175229 
L 292.373706 179.403294 
L 293.11134 175.471895 
z
" style="stroke:#000000;stroke-linecap:round;"/>
   </g>
   <g id="patch_4">
    <path clip-path="url(#p20478616c0)" d="M 89.915982 139.381994 
Q 225.201071 112.127025 359.390147 85.092862 
" style="fill:none;stroke:#000000;stroke-linecap:round;"/>
    <path clip-path="url(#p20478616c0)" d="M 355.073941 83.922235 
L 359.390147 85.092862 
L 355.863922 87.843451 
L 355.073941 83.922235 
z
" style="stroke:#000000;stroke-linecap:round;"/>
   </g>
   <g id="patch_5">
    <path clip-path="url(#p20478616c0)" d="M 89.915982 139.381994 
Q 97.119874 164.706083 104.017858 188.954803 
" style="fill:none;stroke:#000000;stroke-linecap:round;"/>
    <path clip-path="url(#p20478616c0)" d="M 104.847087 184.560218 
L 104.017858 188.954803 
L 100.999727 185.654668 
L 104.847087 184.560218 
z
" style="stroke:#000000;stroke-linecap:round;"/>
   </g>
   <g id="patch_6">
    <path clip-path="url(#p20478616c0)" d="M 356.728886 268.599586 
Q 245.022539 211.900394 134.313153 155.707233 
" style="fill:none;stroke:#000000;stroke-linecap:round;"/>
    <path clip-path="url(#p20478616c0)" d="M 136.974775 159.301085 
L 134.313153 155.707233 
L 138.785208 155.734247 
L 136.974775 159.301085 
z
" style="stroke:#000000;stroke-linecap:round;"/>
   </g>
   <g id="patch_7">
    <path clip-path="url(#p20478616c0)" d="M 356.728886 268.599586 
Q 368.054802 185.605124 379.229546 103.718429 
" style="fill:none;stroke:#000000;stroke-linecap:round;"/>
    <path clip-path="url(#p20478616c0)" d="M 376.707062 107.41127 
L 379.229546 103.718429 
L 380.670328 107.952121 
L 376.707062 107.41127 
z
" style="stroke:#000000;stroke-linecap:round;"/>
   </g>
   <g id="patch_8">
    <path clip-path="url(#p20478616c0)" d="M 356.728886 268.599586 
Q 244.477622 242.590649 133.315537 216.834077 
" style="fill:none;stroke:#000000;stroke-linecap:round;"/>
    <path clip-path="url(#p20478616c0)" d="M 136.760857 219.685352 
L 133.315537 216.834077 
L 137.663749 215.788586 
L 136.760857 219.685352 
z
" style="stroke:#000000;stroke-linecap:round;"/>
   </g>
   <g id="patch_9">
    <path clip-path="url(#p20478616c0)" d="M 113.379968 145.082101 
Q 112.513531 144.871617 112.733529 144.925062 
" style="fill:none;stroke:#000000;stroke-linecap:round;"/>
    <path clip-path="url(#p20478616c0)" d="M 116.14835 147.812793 
L 112.733529 144.925062 
L 117.092607 143.925844 
L 116.14835 147.812793 
z
" style="stroke:#000000;stroke-linecap:round;"/>
   </g>
   <g id="patch_10">
    <path clip-path="url(#p20478616c0)" d="M 113.379968 145.082101 
Q 225.086316 201.781293 335.795701 257.974454 
" style="fill:none;stroke:#000000;stroke-linecap:round;"/>
    <path clip-path="url(#p20478616c0)" d="M 333.13408 254.380602 
L 335.795701 257.974454 
L 331.323647 257.94744 
L 333.13408 254.380602 
z
" style="stroke:#000000;stroke-linecap:round;"/>
   </g>
   <g id="patch_11">
    <path clip-path="url(#p20478616c0)" d="M 113.379968 145.082101 
Q 112.404376 167.140111 111.478185 188.081179 
" style="fill:none;stroke:#000000;stroke-linecap:round;"/>
    <path clip-path="url(#p20478616c0)" d="M 113.652973 184.173456 
L 111.478185 188.081179 
L 109.65688 183.996715 
L 113.652973 184.173456 
z
" style="stroke:#000000;stroke-linecap:round;"/>
   </g>
   <g id="patch_12">
    <path clip-path="url(#p20478616c0)" d="M 319.751194 182.505133 
Q 215.822794 163.005428 112.993254 143.711898 
" style="fill:none;stroke:#000000;stroke-linecap:round;"/>
    <path clip-path="url(#p20478616c0)" d="M 116.555836 146.415231 
L 112.993254 143.711898 
L 117.29347 142.483832 
L 116.555836 146.415231 
z
" style="stroke:#000000;stroke-linecap:round;"/>
   </g>
   <g id="patch_13">
    <path clip-path="url(#p20478616c0)" d="M 319.751194 182.505133 
Q 226.170625 195.483635 133.697491 208.30855 
" style="fill:none;stroke:#000000;stroke-linecap:round;"/>
    <path clip-path="url(#p20478616c0)" d="M 137.934315 209.740096 
L 133.697491 208.30855 
L 137.384822 205.778019 
L 137.934315 209.740096 
z
" style="stroke:#000000;stroke-linecap:round;"/>
   </g>
   <g id="patch_14">
    <path clip-path="url(#p20478616c0)" d="M 382.404018 80.456414 
Q 247.118929 107.711383 112.929853 134.745545 
" style="fill:none;stroke:#000000;stroke-linecap:round;"/>
    <path clip-path="url(#p20478616c0)" d="M 117.246059 135.916172 
L 112.929853 134.745545 
L 116.456078 131.994957 
L 117.246059 135.916172 
z
" style="stroke:#000000;stroke-linecap:round;"/>
   </g>
   <g id="patch_15">
    <path clip-path="url(#p20478616c0)" d="M 382.404018 80.456414 
Q 371.078102 163.450876 359.903359 245.337571 
" style="fill:none;stroke:#000000;stroke-linecap:round;"/>
    <path clip-path="url(#p20478616c0)" d="M 362.425843 241.64473 
L 359.903359 245.337571 
L 358.462576 241.103879 
L 362.425843 241.64473 
z
" style="stroke:#000000;stroke-linecap:round;"/>
   </g>
   <g id="patch_16">
    <path clip-path="url(#p20478616c0)" d="M 110.440905 211.53396 
Q 103.237012 186.20987 96.339029 161.961151 
" style="fill:none;stroke:#000000;stroke-linecap:round;"/>
    <path clip-path="url(#p20478616c0)" d="M 95.509799 166.355736 
L 96.339029 161.961151 
L 99.357159 165.261285 
L 95.509799 166.355736 
z
" style="stroke:#000000;stroke-linecap:round;"/>
   </g>
   <g id="patch_17">
    <path clip-path="url(#p20478616c0)" d="M 110.440905 211.53396 
Q 222.692169 237.542897 333.854254 263.299469 
" style="fill:none;stroke:#000000;stroke-linecap:round;"/>
    <path clip-path="url(#p20478616c0)" d="M 330.408934 260.448194 
L 333.854254 263.299469 
L 329.506042 264.34496 
L 330.408934 260.448194 
z
" style="stroke:#000000;stroke-linecap:round;"/>
   </g>
   <g id="patch_18">
    <path clip-path="url(#p20478616c0)" d="M 110.440905 211.53396 
Q 111.416497 189.47595 112.342688 168.534882 
" style="fill:none;stroke:#000000;stroke-linecap:round;"/>
    <path clip-path="url(#p20478616c0)" d="M 110.1679 172.442605 
L 112.342688 168.534882 
L 114.163993 172.619346 
L 110.1679 172.442605 
z
" style="stroke:#000000;stroke-linecap:round;"/>
   </g>
   <g id="patch_19">
    <path clip-path="url(#p20478616c0)" d="M 110.440905 211.53396 
Q 204.021473 198.555457 296.494607 185.730542 
" style="fill:none;stroke:#000000;stroke-linecap:round;"/>
    <path clip-path="url(#p20478616c0)" d="M 292.257783 184.298996 
L 296.494607 185.730542 
L 292.807276 188.261074 
L 292.257783 184.298996 
z
" style="stroke:#000000;stroke-linecap:round;"/>
   </g>
   <g id="patch_20">
    <path clip-path="url(#p20478616c0)" d="M 89.915982 139.381994 
Q 97.438951 141.209549 102.789049 142.509248 
" style="fill:none;stroke:#808080;stroke-linecap:round;stroke-width:2;"/>
    <path clip-path="url(#p20478616c0)" d="M 99.374227 139.621517 
L 102.789049 142.509248 
L 98.42997 143.508466 
L 99.374227 139.621517 
z
" style="fill:#808080;stroke:#808080;stroke-linecap:round;stroke-width:2;"/>
   </g>
   <g id="patch_21">
    <path clip-path="url(#p20478616c0)" d="M 89.915982 139.381994 
Q 200.577835 160.145072 310.140828 180.701975 
" style="fill:none;stroke:#808080;stroke-linecap:round;"/>
    <path clip-path="url(#p20478616c0)" d="M 306.578247 177.998642 
L 310.140828 180.701975 
L 305.840613 181.93004 
L 306.578247 177.998642 
z
" style="fill:#808080;stroke:#808080;stroke-linecap:round;"/>
   </g>
   <g id="patch_22">
    <path clip-path="url(#p20478616c0)" d="M 89.915982 139.381994 
Q 231.913443 110.774729 372.814891 82.38827 
" style="fill:none;stroke:#808080;stroke-linecap:round;"/>
    <path clip-path="url(#p20478616c0)" d="M 368.498685 81.217643 
L 372.814891 82.38827 
L 369.288666 85.138859 
L 368.498685 81.217643 
z
" style="fill:#808080;stroke:#808080;stroke-linecap:round;"/>
   </g>
   <g id="patch_23">
    <path clip-path="url(#p20478616c0)" d="M 89.915982 139.381994 
Q 98.993976 171.294178 105.624704 194.603403 
" style="fill:none;stroke:#808080;stroke-linecap:round;stroke-width:8;"/>
    <path clip-path="url(#p20478616c0)" d="M 106.453933 190.208818 
L 105.624704 194.603403 
L 102.606573 191.303269 
L 106.453933 190.208818 
z
" style="fill:#808080;stroke:#808080;stroke-linecap:round;stroke-width:8;"/>
   </g>
   <g id="patch_24">
    <path clip-path="url(#p20478616c0)" d="M 356.728886 268.599586 
Q 238.914309 208.800018 123.093655 150.012512 
" style="fill:none;stroke:#808080;stroke-linecap:round;stroke-width:2;"/>
    <path clip-path="url(#p20478616c0)" d="M 125.755276 153.606364 
L 123.093655 150.012512 
L 127.565709 150.039526 
L 125.755276 153.606364 
z
" style="fill:#808080;stroke:#808080;stroke-linecap:round;stroke-width:2;"/>
   </g>
   <g id="patch_25">
    <path clip-path="url(#p20478616c0)" d="M 356.728886 268.599586 
Q 368.98095 178.818466 381.081841 90.145112 
" style="fill:none;stroke:#808080;stroke-linecap:round;"/>
    <path clip-path="url(#p20478616c0)" d="M 378.559357 93.837953 
L 381.081841 90.145112 
L 382.522623 94.378804 
L 378.559357 93.837953 
z
" style="fill:#808080;stroke:#808080;stroke-linecap:round;"/>
   </g>
   <g id="patch_26">
    <path clip-path="url(#p20478616c0)" d="M 356.728886 268.599586 
Q 237.803314 241.044192 127.591175 215.507726 
" style="fill:none;stroke:#808080;stroke-linecap:round;stroke-width:8;"/>
    <path clip-path="url(#p20478616c0)" d="M 131.036495 218.359001 
L 127.591175 215.507726 
L 131.939387 214.462235 
L 131.036495 218.359001 
z
" style="fill:#808080;stroke:#808080;stroke-linecap:round;stroke-width:8;"/>
   </g>
   <g id="patch_27">
    <path clip-path="url(#p20478616c0)" d="M 113.379968 145.082101 
Q 105.857 143.254546 100.506902 141.954846 
" style="fill:none;stroke:#808080;stroke-linecap:round;stroke-width:2;"/>
    <path clip-path="url(#p20478616c0)" d="M 103.921723 144.842578 
L 100.506902 141.954846 
L 104.86598 140.955628 
L 103.921723 144.842578 
z
" style="fill:#808080;stroke:#808080;stroke-linecap:round;stroke-width:2;"/>
   </g>
   <g id="patch_28">
    <path clip-path="url(#p20478616c0)" d="M 113.379968 145.082101 
Q 231.194546 204.88167 347.0152 263.669176 
" style="fill:none;stroke:#808080;stroke-linecap:round;stroke-width:2;"/>
    <path clip-path="url(#p20478616c0)" d="M 344.353579 260.075324 
L 347.0152 263.669176 
L 342.543146 263.642162 
L 344.353579 260.075324 
z
" style="fill:#808080;stroke:#808080;stroke-linecap:round;stroke-width:2;"/>
   </g>
   <g id="patch_29">
    <path clip-path="url(#p20478616c0)" d="M 113.379968 145.082101 
Q 112.101752 173.982414 110.872936 201.765784 
" style="fill:none;stroke:#808080;stroke-linecap:round;"/>
    <path clip-path="url(#p20478616c0)" d="M 113.047724 197.858061 
L 110.872936 201.765784 
L 109.05163 197.68132 
L 113.047724 197.858061 
z
" style="fill:#808080;stroke:#808080;stroke-linecap:round;"/>
   </g>
   <g id="patch_30">
    <path clip-path="url(#p20478616c0)" d="M 319.751194 182.505133 
Q 209.089341 161.742054 99.526347 141.185151 
" style="fill:none;stroke:#808080;stroke-linecap:round;"/>
    <path clip-path="url(#p20478616c0)" d="M 103.088929 143.888485 
L 99.526347 141.185151 
L 103.826563 139.957086 
L 103.088929 143.888485 
z
" style="fill:#808080;stroke:#808080;stroke-linecap:round;"/>
   </g>
   <g id="patch_31">
    <path clip-path="url(#p20478616c0)" d="M 319.751194 182.505133 
Q 219.383755 196.424893 122.338618 209.883889 
" style="fill:none;stroke:#808080;stroke-linecap:round;stroke-width:3;"/>
    <path clip-path="url(#p20478616c0)" d="M 126.575442 211.315436 
L 122.338618 209.883889 
L 126.025949 207.353358 
L 126.575442 211.315436 
z
" style="fill:#808080;stroke:#808080;stroke-linecap:round;stroke-width:3;"/>
   </g>
   <g id="patch_32">
    <path clip-path="url(#p20478616c0)" d="M 382.404018 80.456414 
Q 240.406557 109.063679 99.505109 137.450137 
" style="fill:none;stroke:#808080;stroke-linecap:round;"/>
    <path clip-path="url(#p20478616c0)" d="M 103.821315 138.620764 
L 99.505109 137.450137 
L 103.031334 134.699549 
L 103.821315 138.620764 
z
" style="fill:#808080;stroke:#808080;stroke-linecap:round;"/>
   </g>
   <g id="patch_33">
    <path clip-path="url(#p20478616c0)" d="M 382.404018 80.456414 
Q 370.151955 170.237534 358.051064 258.910888 
" style="fill:none;stroke:#808080;stroke-linecap:round;"/>
    <path clip-path="url(#p20478616c0)" d="M 360.573548 255.218047 
L 358.051064 258.910888 
L 356.610281 254.677196 
L 360.573548 255.218047 
z
" style="fill:#808080;stroke:#808080;stroke-linecap:round;"/>
   </g>
   <g id="patch_34">
    <path clip-path="url(#p20478616c0)" d="M 110.440905 211.53396 
Q 101.362911 179.621776 94.732183 156.31255 
" style="fill:none;stroke:#808080;stroke-linecap:round;stroke-width:8;"/>
    <path clip-path="url(#p20478616c0)" d="M 93.902953 160.707135 
L 94.732183 156.31255 
L 97.750313 159.612684 
L 93.902953 160.707135 
z
" style="fill:#808080;stroke:#808080;stroke-linecap:round;stroke-width:8;"/>
   </g>
   <g id="patch_35">
    <path clip-path="url(#p20478616c0)" d="M 110.440905 211.53396 
Q 229.366477 239.089353 339.578616 264.62582 
" style="fill:none;stroke:#808080;stroke-linecap:round;stroke-width:8;"/>
    <path clip-path="url(#p20478616c0)" d="M 336.133296 261.774545 
L 339.578616 264.62582 
L 335.230404 265.671311 
L 336.133296 261.774545 
z
" style="fill:#808080;stroke:#808080;stroke-linecap:round;stroke-width:8;"/>
   </g>
   <g id="patch_36">
    <path clip-path="url(#p20478616c0)" d="M 110.440905 211.53396 
Q 111.719121 182.633647 112.947937 154.850277 
" style="fill:none;stroke:#808080;stroke-linecap:round;"/>
    <path clip-path="url(#p20478616c0)" d="M 110.773149 158.758 
L 112.947937 154.850277 
L 114.769243 158.934741 
L 110.773149 158.758 
z
" style="fill:#808080;stroke:#808080;stroke-linecap:round;"/>
   </g>
   <g id="patch_37">
    <path clip-path="url(#p20478616c0)" d="M 110.440905 211.53396 
Q 210.808344 197.614199 307.85348 184.155203 
" style="fill:none;stroke:#808080;stroke-linecap:round;stroke-width:3;"/>
    <path clip-path="url(#p20478616c0)" d="M 303.616656 182.723657 
L 307.85348 184.155203 
L 304.166149 186.685734 
L 303.616656 182.723657 
z
" style="fill:#808080;stroke:#808080;stroke-linecap:round;stroke-width:3;"/>
   </g>
   <g id="PathCollection_1">
    <defs>
     <path d="M 0 22.36068 
C 5.930122 22.36068 11.618159 20.004617 15.811388 15.811388 
C 20.004617 11.618159 22.36068 5.930122 22.36068 0 
C 22.36068 -5.930122 20.004617 -11.618159 15.811388 -15.811388 
C 11.618159 -20.004617 5.930122 -22.36068 0 -22.36068 
C -5.930122 -22.36068 -11.618159 -20.004617 -15.811388 -15.811388 
C -20.004617 -11.618159 -22.36068 -5.930122 -22.36068 0 
C -22.36068 5.930122 -20.004617 11.618159 -15.811388 15.811388 
C -11.618159 20.004617 -5.930122 22.36068 0 22.36068 
z
" id="C0_0_5c139788c4"/>
    </defs>
    <g clip-path="url(#p20478616c0)">
     <use style="fill:#0000ff;stroke:#0000ff;" x="89.915982" xlink:href="#C0_0_5c139788c4" y="139.381994"/>
    </g>
    <g clip-path="url(#p20478616c0)">
     <use style="fill:#0000ff;stroke:#0000ff;" x="356.728886" xlink:href="#C0_0_5c139788c4" y="268.599586"/>
    </g>
    <g clip-path="url(#p20478616c0)">
     <use style="fill:#008000;stroke:#008000;" x="113.379968" xlink:href="#C0_0_5c139788c4" y="145.082101"/>
    </g>
    <g clip-path="url(#p20478616c0)">
     <use style="fill:#008000;stroke:#008000;" x="319.751194" xlink:href="#C0_0_5c139788c4" y="182.505133"/>
    </g>
    <g clip-path="url(#p20478616c0)">
     <use style="fill:#008000;stroke:#008000;" x="382.404018" xlink:href="#C0_0_5c139788c4" y="80.456414"/>
    </g>
    <g clip-path="url(#p20478616c0)">
     <use style="fill:#ff0000;stroke:#ff0000;" x="110.440905" xlink:href="#C0_0_5c139788c4" y="211.53396"/>
    </g>
   </g>
   <g id="text_1">
    <g clip-path="url(#p20478616c0)">
     <!-- ICL -->
     <defs>
      <path d="M 9.8125 72.90625 
L 19.671875 72.90625 
L 19.671875 0 
L 9.8125 0 
z
" id="DejaVuSans-49"/>
      <path d="M 64.40625 67.28125 
L 64.40625 56.890625 
Q 59.421875 61.53125 53.78125 63.8125 
Q 48.140625 66.109375 41.796875 66.109375 
Q 29.296875 66.109375 22.65625 58.46875 
Q 16.015625 50.828125 16.015625 36.375 
Q 16.015625 21.96875 22.65625 14.328125 
Q 29.296875 6.6875 41.796875 6.6875 
Q 48.140625 6.6875 53.78125 8.984375 
Q 59.421875 11.28125 64.40625 15.921875 
L 64.40625 5.609375 
Q 59.234375 2.09375 53.4375 0.328125 
Q 47.65625 -1.421875 41.21875 -1.421875 
Q 24.65625 -1.421875 15.125 8.703125 
Q 5.609375 18.84375 5.609375 36.375 
Q 5.609375 53.953125 15.125 64.078125 
Q 24.65625 74.21875 41.21875 74.21875 
Q 47.75 74.21875 53.53125 72.484375 
Q 59.328125 70.75 64.40625 67.28125 
z
" id="DejaVuSans-43"/>
      <path d="M 9.8125 72.90625 
L 19.671875 72.90625 
L 19.671875 8.296875 
L 55.171875 8.296875 
L 55.171875 0 
L 9.8125 0 
z
" id="DejaVuSans-4c"/>
     </defs>
     <g transform="translate(80.613169 142.693244)scale(0.12 -0.12)">
      <use xlink:href="#DejaVuSans-49"/>
      <use x="29.492188" xlink:href="#DejaVuSans-43"/>
      <use x="99.316406" xlink:href="#DejaVuSans-4c"/>
     </g>
    </g>
   </g>
   <g id="text_2">
    <g clip-path="url(#p20478616c0)">
     <!-- UoR -->
     <defs>
      <path d="M 8.6875 72.90625 
L 18.609375 72.90625 
L 18.609375 28.609375 
Q 18.609375 16.890625 22.84375 11.734375 
Q 27.09375 6.59375 36.625 6.59375 
Q 46.09375 6.59375 50.34375 11.734375 
Q 54.59375 16.890625 54.59375 28.609375 
L 54.59375 72.90625 
L 64.5 72.90625 
L 64.5 27.390625 
Q 64.5 13.140625 57.4375 5.859375 
Q 50.390625 -1.421875 36.625 -1.421875 
Q 22.796875 -1.421875 15.734375 5.859375 
Q 8.6875 13.140625 8.6875 27.390625 
z
" id="DejaVuSans-55"/>
      <path d="M 30.609375 48.390625 
Q 23.390625 48.390625 19.1875 42.75 
Q 14.984375 37.109375 14.984375 27.296875 
Q 14.984375 17.484375 19.15625 11.84375 
Q 23.34375 6.203125 30.609375 6.203125 
Q 37.796875 6.203125 41.984375 11.859375 
Q 46.1875 17.53125 46.1875 27.296875 
Q 46.1875 37.015625 41.984375 42.703125 
Q 37.796875 48.390625 30.609375 48.390625 
z
M 30.609375 56 
Q 42.328125 56 49.015625 48.375 
Q 55.71875 40.765625 55.71875 27.296875 
Q 55.71875 13.875 49.015625 6.21875 
Q 42.328125 -1.421875 30.609375 -1.421875 
Q 18.84375 -1.421875 12.171875 6.21875 
Q 5.515625 13.875 5.515625 27.296875 
Q 5.515625 40.765625 12.171875 48.375 
Q 18.84375 56 30.609375 56 
z
" id="DejaVuSans-6f"/>
      <path d="M 44.390625 34.1875 
Q 47.5625 33.109375 50.5625 29.59375 
Q 53.5625 26.078125 56.59375 19.921875 
L 66.609375 0 
L 56 0 
L 46.6875 18.703125 
Q 43.0625 26.03125 39.671875 28.421875 
Q 36.28125 30.8125 30.421875 30.8125 
L 19.671875 30.8125 
L 19.671875 0 
L 9.8125 0 
L 9.8125 72.90625 
L 32.078125 72.90625 
Q 44.578125 72.90625 50.734375 67.671875 
Q 56.890625 62.453125 56.890625 51.90625 
Q 56.890625 45.015625 53.6875 40.46875 
Q 50.484375 35.9375 44.390625 34.1875 
z
M 19.671875 64.796875 
L 19.671875 38.921875 
L 32.078125 38.921875 
Q 39.203125 38.921875 42.84375 42.21875 
Q 46.484375 45.515625 46.484375 51.90625 
Q 46.484375 58.296875 42.84375 61.546875 
Q 39.203125 64.796875 32.078125 64.796875 
z
" id="DejaVuSans-52"/>
     </defs>
     <g transform="translate(344.497324 271.910836)scale(0.12 -0.12)">
      <use xlink:href="#DejaVuSans-55"/>
      <use x="73.193359" xlink:href="#DejaVuSans-6f"/>
      <use x="134.375" xlink:href="#DejaVuSans-52"/>
     </g>
    </g>
   </g>
   <g id="text_3">
    <g clip-path="url(#p20478616c0)">
     <!-- CEH -->
     <defs>
      <path d="M 9.8125 72.90625 
L 55.90625 72.90625 
L 55.90625 64.59375 
L 19.671875 64.59375 
L 19.671875 43.015625 
L 54.390625 43.015625 
L 54.390625 34.71875 
L 19.671875 34.71875 
L 19.671875 8.296875 
L 56.78125 8.296875 
L 56.78125 0 
L 9.8125 0 
z
" id="DejaVuSans-45"/>
      <path d="M 9.8125 72.90625 
L 19.671875 72.90625 
L 19.671875 43.015625 
L 55.515625 43.015625 
L 55.515625 72.90625 
L 65.375 72.90625 
L 65.375 0 
L 55.515625 0 
L 55.515625 34.71875 
L 19.671875 34.71875 
L 19.671875 0 
L 9.8125 0 
z
" id="DejaVuSans-48"/>
     </defs>
     <g transform="translate(100.886843 148.393351)scale(0.12 -0.12)">
      <use xlink:href="#DejaVuSans-43"/>
      <use x="69.824219" xlink:href="#DejaVuSans-45"/>
      <use x="133.007812" xlink:href="#DejaVuSans-48"/>
     </g>
    </g>
   </g>
   <g id="text_4">
    <g clip-path="url(#p20478616c0)">
     <!-- ZSL -->
     <defs>
      <path d="M 5.609375 72.90625 
L 62.890625 72.90625 
L 62.890625 65.375 
L 16.796875 8.296875 
L 64.015625 8.296875 
L 64.015625 0 
L 4.5 0 
L 4.5 7.515625 
L 50.59375 64.59375 
L 5.609375 64.59375 
z
" id="DejaVuSans-5a"/>
      <path d="M 53.515625 70.515625 
L 53.515625 60.890625 
Q 47.90625 63.578125 42.921875 64.890625 
Q 37.9375 66.21875 33.296875 66.21875 
Q 25.25 66.21875 20.875 63.09375 
Q 16.5 59.96875 16.5 54.203125 
Q 16.5 49.359375 19.40625 46.890625 
Q 22.3125 44.4375 30.421875 42.921875 
L 36.375 41.703125 
Q 47.40625 39.59375 52.65625 34.296875 
Q 57.90625 29 57.90625 20.125 
Q 57.90625 9.515625 50.796875 4.046875 
Q 43.703125 -1.421875 29.984375 -1.421875 
Q 24.8125 -1.421875 18.96875 -0.25 
Q 13.140625 0.921875 6.890625 3.21875 
L 6.890625 13.375 
Q 12.890625 10.015625 18.65625 8.296875 
Q 24.421875 6.59375 29.984375 6.59375 
Q 38.421875 6.59375 43.015625 9.90625 
Q 47.609375 13.234375 47.609375 19.390625 
Q 47.609375 24.75 44.3125 27.78125 
Q 41.015625 30.8125 33.5 32.328125 
L 27.484375 33.5 
Q 16.453125 35.6875 11.515625 40.375 
Q 6.59375 45.0625 6.59375 53.421875 
Q 6.59375 63.09375 13.40625 68.65625 
Q 20.21875 74.21875 32.171875 74.21875 
Q 37.3125 74.21875 42.625 73.28125 
Q 47.953125 72.359375 53.515625 70.515625 
z
" id="DejaVuSans-53"/>
     </defs>
     <g transform="translate(308.489006 185.816383)scale(0.12 -0.12)">
      <use xlink:href="#DejaVuSans-5a"/>
      <use x="68.505859" xlink:href="#DejaVuSans-53"/>
      <use x="131.982422" xlink:href="#DejaVuSans-4c"/>
     </g>
    </g>
   </g>
   <g id="text_5">
    <g clip-path="url(#p20478616c0)">
     <!-- CEFAS -->
     <defs>
      <path d="M 9.8125 72.90625 
L 51.703125 72.90625 
L 51.703125 64.59375 
L 19.671875 64.59375 
L 19.671875 43.109375 
L 48.578125 43.109375 
L 48.578125 34.8125 
L 19.671875 34.8125 
L 19.671875 0 
L 9.8125 0 
z
" id="DejaVuSans-46"/>
      <path d="M 34.1875 63.1875 
L 20.796875 26.90625 
L 47.609375 26.90625 
z
M 28.609375 72.90625 
L 39.796875 72.90625 
L 67.578125 0 
L 57.328125 0 
L 50.6875 18.703125 
L 17.828125 18.703125 
L 11.1875 0 
L 0.78125 0 
z
" id="DejaVuSans-41"/>
     </defs>
     <g transform="translate(363.067143 83.767664)scale(0.12 -0.12)">
      <use xlink:href="#DejaVuSans-43"/>
      <use x="69.824219" xlink:href="#DejaVuSans-45"/>
      <use x="133.007812" xlink:href="#DejaVuSans-46"/>
      <use x="190.386719" xlink:href="#DejaVuSans-41"/>
      <use x="258.794922" xlink:href="#DejaVuSans-53"/>
     </g>
    </g>
   </g>
   <g id="text_6">
    <g clip-path="url(#p20478616c0)">
     <!-- NonAc -->
     <defs>
      <path d="M 9.8125 72.90625 
L 23.09375 72.90625 
L 55.421875 11.921875 
L 55.421875 72.90625 
L 64.984375 72.90625 
L 64.984375 0 
L 51.703125 0 
L 19.390625 60.984375 
L 19.390625 0 
L 9.8125 0 
z
" id="DejaVuSans-4e"/>
      <path d="M 54.890625 33.015625 
L 54.890625 0 
L 45.90625 0 
L 45.90625 32.71875 
Q 45.90625 40.484375 42.875 44.328125 
Q 39.84375 48.1875 33.796875 48.1875 
Q 26.515625 48.1875 22.3125 43.546875 
Q 18.109375 38.921875 18.109375 30.90625 
L 18.109375 0 
L 9.078125 0 
L 9.078125 54.6875 
L 18.109375 54.6875 
L 18.109375 46.1875 
Q 21.34375 51.125 25.703125 53.5625 
Q 30.078125 56 35.796875 56 
Q 45.21875 56 50.046875 50.171875 
Q 54.890625 44.34375 54.890625 33.015625 
z
" id="DejaVuSans-6e"/>
      <path d="M 48.78125 52.59375 
L 48.78125 44.1875 
Q 44.96875 46.296875 41.140625 47.34375 
Q 37.3125 48.390625 33.40625 48.390625 
Q 24.65625 48.390625 19.8125 42.84375 
Q 14.984375 37.3125 14.984375 27.296875 
Q 14.984375 17.28125 19.8125 11.734375 
Q 24.65625 6.203125 33.40625 6.203125 
Q 37.3125 6.203125 41.140625 7.25 
Q 44.96875 8.296875 48.78125 10.40625 
L 48.78125 2.09375 
Q 45.015625 0.34375 40.984375 -0.53125 
Q 36.96875 -1.421875 32.421875 -1.421875 
Q 20.0625 -1.421875 12.78125 6.34375 
Q 5.515625 14.109375 5.515625 27.296875 
Q 5.515625 40.671875 12.859375 48.328125 
Q 20.21875 56 33.015625 56 
Q 37.15625 56 41.109375 55.140625 
Q 45.0625 54.296875 48.78125 52.59375 
z
" id="DejaVuSans-63"/>
     </defs>
     <g transform="translate(91.075905 214.84521)scale(0.12 -0.12)">
      <use xlink:href="#DejaVuSans-4e"/>
      <use x="74.804688" xlink:href="#DejaVuSans-6f"/>
      <use x="135.986328" xlink:href="#DejaVuSans-6e"/>
      <use x="199.365234" xlink:href="#DejaVuSans-41"/>
      <use x="267.757812" xlink:href="#DejaVuSans-63"/>
     </g>
    </g>
   </g>
   <g id="legend_1">
    <g id="patch_38">
     <path d="M 64.6 93.506375 
L 198.340625 93.506375 
Q 200.340625 93.506375 200.340625 91.506375 
L 200.340625 48.472 
Q 200.340625 46.472 198.340625 46.472 
L 64.6 46.472 
Q 62.6 46.472 62.6 48.472 
L 62.6 91.506375 
Q 62.6 93.506375 64.6 93.506375 
z
" style="fill:#ffffff;opacity:0.8;stroke:#cccccc;stroke-linejoin:miter;"/>
    </g>
    <g id="patch_39">
     <path d="M 66.6 58.070438 
L 86.6 58.070438 
L 86.6 51.070438 
L 66.6 51.070438 
z
" style="fill:#0000ff;stroke:#0000ff;stroke-linejoin:miter;"/>
    </g>
    <g id="text_7">
     <!-- University -->
     <defs>
      <path d="M 9.421875 54.6875 
L 18.40625 54.6875 
L 18.40625 0 
L 9.421875 0 
z
M 9.421875 75.984375 
L 18.40625 75.984375 
L 18.40625 64.59375 
L 9.421875 64.59375 
z
" id="DejaVuSans-69"/>
      <path d="M 2.984375 54.6875 
L 12.5 54.6875 
L 29.59375 8.796875 
L 46.6875 54.6875 
L 56.203125 54.6875 
L 35.6875 0 
L 23.484375 0 
z
" id="DejaVuSans-76"/>
      <path d="M 56.203125 29.59375 
L 56.203125 25.203125 
L 14.890625 25.203125 
Q 15.484375 15.921875 20.484375 11.0625 
Q 25.484375 6.203125 34.421875 6.203125 
Q 39.59375 6.203125 44.453125 7.46875 
Q 49.3125 8.734375 54.109375 11.28125 
L 54.109375 2.78125 
Q 49.265625 0.734375 44.1875 -0.34375 
Q 39.109375 -1.421875 33.890625 -1.421875 
Q 20.796875 -1.421875 13.15625 6.1875 
Q 5.515625 13.8125 5.515625 26.8125 
Q 5.515625 40.234375 12.765625 48.109375 
Q 20.015625 56 32.328125 56 
Q 43.359375 56 49.78125 48.890625 
Q 56.203125 41.796875 56.203125 29.59375 
z
M 47.21875 32.234375 
Q 47.125 39.59375 43.09375 43.984375 
Q 39.0625 48.390625 32.421875 48.390625 
Q 24.90625 48.390625 20.390625 44.140625 
Q 15.875 39.890625 15.1875 32.171875 
z
" id="DejaVuSans-65"/>
      <path d="M 41.109375 46.296875 
Q 39.59375 47.171875 37.8125 47.578125 
Q 36.03125 48 33.890625 48 
Q 26.265625 48 22.1875 43.046875 
Q 18.109375 38.09375 18.109375 28.8125 
L 18.109375 0 
L 9.078125 0 
L 9.078125 54.6875 
L 18.109375 54.6875 
L 18.109375 46.1875 
Q 20.953125 51.171875 25.484375 53.578125 
Q 30.03125 56 36.53125 56 
Q 37.453125 56 38.578125 55.875 
Q 39.703125 55.765625 41.0625 55.515625 
z
" id="DejaVuSans-72"/>
      <path d="M 44.28125 53.078125 
L 44.28125 44.578125 
Q 40.484375 46.53125 36.375 47.5 
Q 32.28125 48.484375 27.875 48.484375 
Q 21.1875 48.484375 17.84375 46.4375 
Q 14.5 44.390625 14.5 40.28125 
Q 14.5 37.15625 16.890625 35.375 
Q 19.28125 33.59375 26.515625 31.984375 
L 29.59375 31.296875 
Q 39.15625 29.25 43.1875 25.515625 
Q 47.21875 21.78125 47.21875 15.09375 
Q 47.21875 7.46875 41.1875 3.015625 
Q 35.15625 -1.421875 24.609375 -1.421875 
Q 20.21875 -1.421875 15.453125 -0.5625 
Q 10.6875 0.296875 5.421875 2 
L 5.421875 11.28125 
Q 10.40625 8.6875 15.234375 7.390625 
Q 20.0625 6.109375 24.8125 6.109375 
Q 31.15625 6.109375 34.5625 8.28125 
Q 37.984375 10.453125 37.984375 14.40625 
Q 37.984375 18.0625 35.515625 20.015625 
Q 33.0625 21.96875 24.703125 23.78125 
L 21.578125 24.515625 
Q 13.234375 26.265625 9.515625 29.90625 
Q 5.8125 33.546875 5.8125 39.890625 
Q 5.8125 47.609375 11.28125 51.796875 
Q 16.75 56 26.8125 56 
Q 31.78125 56 36.171875 55.265625 
Q 40.578125 54.546875 44.28125 53.078125 
z
" id="DejaVuSans-73"/>
      <path d="M 18.3125 70.21875 
L 18.3125 54.6875 
L 36.8125 54.6875 
L 36.8125 47.703125 
L 18.3125 47.703125 
L 18.3125 18.015625 
Q 18.3125 11.328125 20.140625 9.421875 
Q 21.96875 7.515625 27.59375 7.515625 
L 36.8125 7.515625 
L 36.8125 0 
L 27.59375 0 
Q 17.1875 0 13.234375 3.875 
Q 9.28125 7.765625 9.28125 18.015625 
L 9.28125 47.703125 
L 2.6875 47.703125 
L 2.6875 54.6875 
L 9.28125 54.6875 
L 9.28125 70.21875 
z
" id="DejaVuSans-74"/>
      <path d="M 32.171875 -5.078125 
Q 28.375 -14.84375 24.75 -17.8125 
Q 21.140625 -20.796875 15.09375 -20.796875 
L 7.90625 -20.796875 
L 7.90625 -13.28125 
L 13.1875 -13.28125 
Q 16.890625 -13.28125 18.9375 -11.515625 
Q 21 -9.765625 23.484375 -3.21875 
L 25.09375 0.875 
L 2.984375 54.6875 
L 12.5 54.6875 
L 29.59375 11.921875 
L 46.6875 54.6875 
L 56.203125 54.6875 
z
" id="DejaVuSans-79"/>
     </defs>
     <g transform="translate(94.6 58.070438)scale(0.1 -0.1)">
      <use xlink:href="#DejaVuSans-55"/>
      <use x="73.193359" xlink:href="#DejaVuSans-6e"/>
      <use x="136.572266" xlink:href="#DejaVuSans-69"/>
      <use x="164.355469" xlink:href="#DejaVuSans-76"/>
      <use x="223.535156" xlink:href="#DejaVuSans-65"/>
      <use x="285.058594" xlink:href="#DejaVuSans-72"/>
      <use x="326.171875" xlink:href="#DejaVuSans-73"/>
      <use x="378.271484" xlink:href="#DejaVuSans-69"/>
      <use x="406.054688" xlink:href="#DejaVuSans-74"/>
      <use x="445.263672" xlink:href="#DejaVuSans-79"/>
     </g>
    </g>
    <g id="patch_40">
     <path d="M 66.6 72.748563 
L 86.6 72.748563 
L 86.6 65.748563 
L 66.6 65.748563 
z
" style="fill:#008000;stroke:#008000;stroke-linejoin:miter;"/>
    </g>
    <g id="text_8">
     <!-- Hosting Partner -->
     <defs>
      <path d="M 45.40625 27.984375 
Q 45.40625 37.75 41.375 43.109375 
Q 37.359375 48.484375 30.078125 48.484375 
Q 22.859375 48.484375 18.828125 43.109375 
Q 14.796875 37.75 14.796875 27.984375 
Q 14.796875 18.265625 18.828125 12.890625 
Q 22.859375 7.515625 30.078125 7.515625 
Q 37.359375 7.515625 41.375 12.890625 
Q 45.40625 18.265625 45.40625 27.984375 
z
M 54.390625 6.78125 
Q 54.390625 -7.171875 48.1875 -13.984375 
Q 42 -20.796875 29.203125 -20.796875 
Q 24.46875 -20.796875 20.265625 -20.09375 
Q 16.0625 -19.390625 12.109375 -17.921875 
L 12.109375 -9.1875 
Q 16.0625 -11.328125 19.921875 -12.34375 
Q 23.78125 -13.375 27.78125 -13.375 
Q 36.625 -13.375 41.015625 -8.765625 
Q 45.40625 -4.15625 45.40625 5.171875 
L 45.40625 9.625 
Q 42.625 4.78125 38.28125 2.390625 
Q 33.9375 0 27.875 0 
Q 17.828125 0 11.671875 7.65625 
Q 5.515625 15.328125 5.515625 27.984375 
Q 5.515625 40.671875 11.671875 48.328125 
Q 17.828125 56 27.875 56 
Q 33.9375 56 38.28125 53.609375 
Q 42.625 51.21875 45.40625 46.390625 
L 45.40625 54.6875 
L 54.390625 54.6875 
z
" id="DejaVuSans-67"/>
      <path id="DejaVuSans-20"/>
      <path d="M 19.671875 64.796875 
L 19.671875 37.40625 
L 32.078125 37.40625 
Q 38.96875 37.40625 42.71875 40.96875 
Q 46.484375 44.53125 46.484375 51.125 
Q 46.484375 57.671875 42.71875 61.234375 
Q 38.96875 64.796875 32.078125 64.796875 
z
M 9.8125 72.90625 
L 32.078125 72.90625 
Q 44.34375 72.90625 50.609375 67.359375 
Q 56.890625 61.8125 56.890625 51.125 
Q 56.890625 40.328125 50.609375 34.8125 
Q 44.34375 29.296875 32.078125 29.296875 
L 19.671875 29.296875 
L 19.671875 0 
L 9.8125 0 
z
" id="DejaVuSans-50"/>
      <path d="M 34.28125 27.484375 
Q 23.390625 27.484375 19.1875 25 
Q 14.984375 22.515625 14.984375 16.5 
Q 14.984375 11.71875 18.140625 8.90625 
Q 21.296875 6.109375 26.703125 6.109375 
Q 34.1875 6.109375 38.703125 11.40625 
Q 43.21875 16.703125 43.21875 25.484375 
L 43.21875 27.484375 
z
M 52.203125 31.203125 
L 52.203125 0 
L 43.21875 0 
L 43.21875 8.296875 
Q 40.140625 3.328125 35.546875 0.953125 
Q 30.953125 -1.421875 24.3125 -1.421875 
Q 15.921875 -1.421875 10.953125 3.296875 
Q 6 8.015625 6 15.921875 
Q 6 25.140625 12.171875 29.828125 
Q 18.359375 34.515625 30.609375 34.515625 
L 43.21875 34.515625 
L 43.21875 35.40625 
Q 43.21875 41.609375 39.140625 45 
Q 35.0625 48.390625 27.6875 48.390625 
Q 23 48.390625 18.546875 47.265625 
Q 14.109375 46.140625 10.015625 43.890625 
L 10.015625 52.203125 
Q 14.9375 54.109375 19.578125 55.046875 
Q 24.21875 56 28.609375 56 
Q 40.484375 56 46.34375 49.84375 
Q 52.203125 43.703125 52.203125 31.203125 
z
" id="DejaVuSans-61"/>
     </defs>
     <g transform="translate(94.6 72.748563)scale(0.1 -0.1)">
      <use xlink:href="#DejaVuSans-48"/>
      <use x="75.195312" xlink:href="#DejaVuSans-6f"/>
      <use x="136.376953" xlink:href="#DejaVuSans-73"/>
      <use x="188.476562" xlink:href="#DejaVuSans-74"/>
      <use x="227.685547" xlink:href="#DejaVuSans-69"/>
      <use x="255.46875" xlink:href="#DejaVuSans-6e"/>
      <use x="318.847656" xlink:href="#DejaVuSans-67"/>
      <use x="382.324219" xlink:href="#DejaVuSans-20"/>
      <use x="414.111328" xlink:href="#DejaVuSans-50"/>
      <use x="474.351562" xlink:href="#DejaVuSans-61"/>
      <use x="535.630859" xlink:href="#DejaVuSans-72"/>
      <use x="576.744141" xlink:href="#DejaVuSans-74"/>
      <use x="615.953125" xlink:href="#DejaVuSans-6e"/>
      <use x="679.332031" xlink:href="#DejaVuSans-65"/>
      <use x="740.855469" xlink:href="#DejaVuSans-72"/>
     </g>
    </g>
    <g id="patch_41">
     <path d="M 66.6 87.426688 
L 86.6 87.426688 
L 86.6 80.426688 
L 66.6 80.426688 
z
" style="fill:#ff0000;stroke:#ff0000;stroke-linejoin:miter;"/>
    </g>
    <g id="text_9">
     <!-- Non-Hosting Partner -->
     <defs>
      <path d="M 4.890625 31.390625 
L 31.203125 31.390625 
L 31.203125 23.390625 
L 4.890625 23.390625 
z
" id="DejaVuSans-2d"/>
     </defs>
     <g transform="translate(94.6 87.426688)scale(0.1 -0.1)">
      <use xlink:href="#DejaVuSans-4e"/>
      <use x="74.804688" xlink:href="#DejaVuSans-6f"/>
      <use x="135.986328" xlink:href="#DejaVuSans-6e"/>
      <use x="199.365234" xlink:href="#DejaVuSans-2d"/>
      <use x="235.449219" xlink:href="#DejaVuSans-48"/>
      <use x="310.644531" xlink:href="#DejaVuSans-6f"/>
      <use x="371.826172" xlink:href="#DejaVuSans-73"/>
      <use x="423.925781" xlink:href="#DejaVuSans-74"/>
      <use x="463.134766" xlink:href="#DejaVuSans-69"/>
      <use x="490.917969" xlink:href="#DejaVuSans-6e"/>
      <use x="554.296875" xlink:href="#DejaVuSans-67"/>
      <use x="617.773438" xlink:href="#DejaVuSans-20"/>
      <use x="649.560547" xlink:href="#DejaVuSans-50"/>
      <use x="709.800781" xlink:href="#DejaVuSans-61"/>
      <use x="771.080078" xlink:href="#DejaVuSans-72"/>
      <use x="812.193359" xlink:href="#DejaVuSans-74"/>
      <use x="851.402344" xlink:href="#DejaVuSans-6e"/>
      <use x="914.78125" xlink:href="#DejaVuSans-65"/>
      <use x="976.304688" xlink:href="#DejaVuSans-72"/>
     </g>
    </g>
   </g>
  </g>
 </g>
 <defs>
  <clipPath id="p20478616c0">
   <rect height="266.112" width="357.12" x="57.6" y="41.472"/>
  </clipPath>
 </defs>
</svg>
