<?xml version="1.0" encoding="utf-8" standalone="no"?>
<!DOCTYPE svg PUBLIC "-//W3C//DTD SVG 1.1//EN"
  "http://www.w3.org/Graphics/SVG/1.1/DTD/svg11.dtd">
<!-- Created with matplotlib (http://matplotlib.org/) -->
<svg height="345.6pt" version="1.1" viewBox="0 0 460.8 345.6" width="460.8pt" xmlns="http://www.w3.org/2000/svg" xmlns:xlink="http://www.w3.org/1999/xlink">
 <defs>
  <style type="text/css">
*{stroke-linecap:butt;stroke-linejoin:round;}
  </style>
 </defs>
 <g id="figure_1">
  <g id="patch_1">
   <path d="M 0 345.6 
L 460.8 345.6 
L 460.8 0 
L 0 0 
z
" style="fill:#ffffff;"/>
  </g>
  <g id="axes_1">
   <g id="patch_2">
    <path clip-path="url(#p91b0b653ad)" d="M 250.492083 69.975757 
Q 178.81616 118.226344 108.067702 165.852583 
" style="fill:none;stroke:#000000;stroke-linecap:round;"/>
    <path clip-path="url(#p91b0b653ad)" d="M 112.502766 165.277948 
L 108.067702 165.852583 
L 110.269032 161.959751 
L 112.502766 165.277948 
z
" style="stroke:#000000;stroke-linecap:round;"/>
   </g>
   <g id="patch_3">
    <path clip-path="url(#p91b0b653ad)" d="M 250.492083 69.975757 
Q 269.733911 90.901321 288.218973 111.0039 
" style="fill:none;stroke:#000000;stroke-linecap:round;"/>
    <path clip-path="url(#p91b0b653ad)" d="M 286.983687 106.705753 
L 288.218973 111.0039 
L 284.039284 109.41324 
L 286.983687 106.705753 
z
" style="stroke:#000000;stroke-linecap:round;"/>
   </g>
   <g id="patch_4">
    <path clip-path="url(#p91b0b653ad)" d="M 250.492083 69.975757 
Q 280.138327 84.952102 308.786643 99.424326 
" style="fill:none;stroke:#000000;stroke-linecap:round;"/>
    <path clip-path="url(#p91b0b653ad)" d="M 306.118146 95.835576 
L 308.786643 99.424326 
L 304.314545 99.405873 
L 306.118146 95.835576 
z
" style="stroke:#000000;stroke-linecap:round;"/>
   </g>
   <g id="patch_5">
    <path clip-path="url(#p91b0b653ad)" d="M 250.492083 69.975757 
Q 310.537289 152.579892 369.925117 234.279674 
" style="fill:none;stroke:#000000;stroke-linecap:round;"/>
    <path clip-path="url(#p91b0b653ad)" d="M 369.190969 229.868209 
L 369.925117 234.279674 
L 365.955455 232.220113 
L 369.190969 229.868209 
z
" style="stroke:#000000;stroke-linecap:round;"/>
   </g>
   <g id="patch_6">
    <path clip-path="url(#p91b0b653ad)" d="M 144.910407 279.080243 
Q 122.232096 238.767297 100.101956 199.428777 
" style="fill:none;stroke:#000000;stroke-linecap:round;"/>
    <path clip-path="url(#p91b0b653ad)" d="M 100.320042 203.895593 
L 100.101956 199.428777 
L 103.80626 201.934398 
L 100.320042 203.895593 
z
" style="stroke:#000000;stroke-linecap:round;"/>
   </g>
   <g id="patch_7">
    <path clip-path="url(#p91b0b653ad)" d="M 144.910407 279.080243 
Q 229.076968 202.093282 312.418556 125.86092 
" style="fill:none;stroke:#000000;stroke-linecap:round;"/>
    <path clip-path="url(#p91b0b653ad)" d="M 308.117177 127.084905 
L 312.418556 125.86092 
L 310.816916 130.036414 
L 308.117177 127.084905 
z
" style="stroke:#000000;stroke-linecap:round;"/>
   </g>
   <g id="patch_8">
    <path clip-path="url(#p91b0b653ad)" d="M 144.910407 279.080243 
Q 253.203996 267.377136 360.386022 255.794153 
" style="fill:none;stroke:#000000;stroke-linecap:round;"/>
    <path clip-path="url(#p91b0b653ad)" d="M 356.194292 254.235501 
L 360.386022 255.794153 
L 356.624063 258.212346 
L 356.194292 254.235501 
z
" style="stroke:#000000;stroke-linecap:round;"/>
   </g>
   <g id="patch_9">
    <path clip-path="url(#p91b0b653ad)" d="M 88.589752 178.964692 
Q 160.265675 130.714105 231.014134 83.087865 
" style="fill:none;stroke:#000000;stroke-linecap:round;"/>
    <path clip-path="url(#p91b0b653ad)" d="M 226.57907 83.662501 
L 231.014134 83.087865 
L 228.812804 86.980698 
L 226.57907 83.662501 
z
" style="stroke:#000000;stroke-linecap:round;"/>
   </g>
   <g id="patch_10">
    <path clip-path="url(#p91b0b653ad)" d="M 88.589752 178.964692 
Q 111.268063 219.277639 133.398203 258.616158 
" style="fill:none;stroke:#000000;stroke-linecap:round;"/>
    <path clip-path="url(#p91b0b653ad)" d="M 133.180117 254.149343 
L 133.398203 258.616158 
L 129.693899 256.110538 
L 133.180117 254.149343 
z
" style="stroke:#000000;stroke-linecap:round;"/>
   </g>
   <g id="patch_11">
    <path clip-path="url(#p91b0b653ad)" d="M 88.589752 178.964692 
Q 225.317856 213.388341 360.96176 247.539023 
" style="fill:none;stroke:#000000;stroke-linecap:round;"/>
    <path clip-path="url(#p91b0b653ad)" d="M 357.571105 244.622955 
L 360.96176 247.539023 
L 356.594512 248.501906 
L 357.571105 244.622955 
z
" style="stroke:#000000;stroke-linecap:round;"/>
   </g>
   <g id="patch_12">
    <path clip-path="url(#p91b0b653ad)" d="M 304.111967 128.287594 
Q 284.870139 107.36203 266.385077 87.259451 
" style="fill:none;stroke:#000000;stroke-linecap:round;"/>
    <path clip-path="url(#p91b0b653ad)" d="M 267.620363 91.557598 
L 266.385077 87.259451 
L 270.564766 88.850111 
L 267.620363 91.557598 
z
" style="stroke:#000000;stroke-linecap:round;"/>
   </g>
   <g id="patch_13">
    <path clip-path="url(#p91b0b653ad)" d="M 304.111967 128.287594 
Q 337.913533 181.348872 371.114408 233.467192 
" style="fill:none;stroke:#000000;stroke-linecap:round;"/>
    <path clip-path="url(#p91b0b653ad)" d="M 370.652123 229.019013 
L 371.114408 233.467192 
L 367.278494 231.168112 
L 370.652123 229.019013 
z
" style="stroke:#000000;stroke-linecap:round;"/>
   </g>
   <g id="patch_14">
    <path clip-path="url(#p91b0b653ad)" d="M 329.745448 110.012052 
Q 300.099204 95.035706 271.450889 80.563483 
" style="fill:none;stroke:#000000;stroke-linecap:round;"/>
    <path clip-path="url(#p91b0b653ad)" d="M 274.119385 84.152233 
L 271.450889 80.563483 
L 275.922987 80.581936 
L 274.119385 84.152233 
z
" style="stroke:#000000;stroke-linecap:round;"/>
   </g>
   <g id="patch_15">
    <path clip-path="url(#p91b0b653ad)" d="M 329.745448 110.012052 
Q 245.578887 186.999013 162.237299 263.231375 
" style="fill:none;stroke:#000000;stroke-linecap:round;"/>
    <path clip-path="url(#p91b0b653ad)" d="M 166.538678 262.00739 
L 162.237299 263.231375 
L 163.838939 259.055881 
L 166.538678 262.00739 
z
" style="stroke:#000000;stroke-linecap:round;"/>
   </g>
   <g id="patch_16">
    <path clip-path="url(#p91b0b653ad)" d="M 383.730248 253.271381 
Q 323.685043 170.667246 264.297215 88.967464 
" style="fill:none;stroke:#000000;stroke-linecap:round;"/>
    <path clip-path="url(#p91b0b653ad)" d="M 265.031363 93.378929 
L 264.297215 88.967464 
L 268.266876 91.027024 
L 265.031363 93.378929 
z
" style="stroke:#000000;stroke-linecap:round;"/>
   </g>
   <g id="patch_17">
    <path clip-path="url(#p91b0b653ad)" d="M 383.730248 253.271381 
Q 275.436659 264.974489 168.254633 276.557472 
" style="fill:none;stroke:#000000;stroke-linecap:round;"/>
    <path clip-path="url(#p91b0b653ad)" d="M 172.446363 278.116123 
L 168.254633 276.557472 
L 172.016592 274.139278 
L 172.446363 278.116123 
z
" style="stroke:#000000;stroke-linecap:round;"/>
   </g>
   <g id="patch_18">
    <path clip-path="url(#p91b0b653ad)" d="M 383.730248 253.271381 
Q 247.002144 218.847733 111.35824 184.69705 
" style="fill:none;stroke:#000000;stroke-linecap:round;"/>
    <path clip-path="url(#p91b0b653ad)" d="M 114.748895 187.613119 
L 111.35824 184.69705 
L 115.725488 183.734167 
L 114.748895 187.613119 
z
" style="stroke:#000000;stroke-linecap:round;"/>
   </g>
   <g id="patch_19">
    <path clip-path="url(#p91b0b653ad)" d="M 383.730248 253.271381 
Q 349.928682 200.210103 316.727807 148.091783 
" style="fill:none;stroke:#000000;stroke-linecap:round;"/>
    <path clip-path="url(#p91b0b653ad)" d="M 317.190092 152.539962 
L 316.727807 148.091783 
L 320.563721 150.390863 
L 317.190092 152.539962 
z
" style="stroke:#000000;stroke-linecap:round;"/>
   </g>
   <g id="patch_20">
    <path clip-path="url(#p91b0b653ad)" d="M 250.492083 69.975757 
Q 173.134163 122.051334 97.631172 172.878216 
" style="fill:none;stroke:#000000;stroke-linecap:round;stroke-width:2;"/>
    <path clip-path="url(#p91b0b653ad)" d="M 102.066236 172.30358 
L 97.631172 172.878216 
L 99.832502 168.985383 
L 102.066236 172.30358 
z
" style="stroke:#000000;stroke-linecap:round;stroke-width:2;"/>
   </g>
   <g id="patch_21">
    <path clip-path="url(#p91b0b653ad)" d="M 250.492083 69.975757 
Q 274.371324 95.944526 297.493799 121.09031 
" style="fill:none;stroke:#000000;stroke-linecap:round;"/>
    <path clip-path="url(#p91b0b653ad)" d="M 296.258513 116.792163 
L 297.493799 121.09031 
L 293.31411 119.49965 
L 296.258513 116.792163 
z
" style="stroke:#000000;stroke-linecap:round;"/>
   </g>
   <g id="patch_22">
    <path clip-path="url(#p91b0b653ad)" d="M 250.492083 69.975757 
Q 286.2526 88.04084 321.015189 105.601801 
" style="fill:none;stroke:#000000;stroke-linecap:round;"/>
    <path clip-path="url(#p91b0b653ad)" d="M 318.346693 102.013051 
L 321.015189 105.601801 
L 316.543091 105.583348 
L 318.346693 102.013051 
z
" style="stroke:#000000;stroke-linecap:round;"/>
   </g>
   <g id="patch_23">
    <path clip-path="url(#p91b0b653ad)" d="M 250.492083 69.975757 
Q 314.564767 158.12049 373.378432 239.030396 
" style="fill:none;stroke:#000000;stroke-linecap:round;stroke-width:8;"/>
    <path clip-path="url(#p91b0b653ad)" d="M 372.644283 234.618931 
L 373.378432 239.030396 
L 369.40877 236.970836 
L 372.644283 234.618931 
z
" style="stroke:#000000;stroke-linecap:round;stroke-width:8;"/>
   </g>
   <g id="patch_24">
    <path clip-path="url(#p91b0b653ad)" d="M 144.910407 279.080243 
Q 118.87362 232.797271 93.933174 188.463154 
" style="fill:none;stroke:#000000;stroke-linecap:round;stroke-width:2;"/>
    <path clip-path="url(#p91b0b653ad)" d="M 94.151259 192.92997 
L 93.933174 188.463154 
L 97.637477 190.968775 
L 94.151259 192.92997 
z
" style="stroke:#000000;stroke-linecap:round;stroke-width:2;"/>
   </g>
   <g id="patch_25">
    <path clip-path="url(#p91b0b653ad)" d="M 144.910407 279.080243 
Q 234.133871 197.467744 322.532363 116.609844 
" style="fill:none;stroke:#000000;stroke-linecap:round;"/>
    <path clip-path="url(#p91b0b653ad)" d="M 318.230984 117.833829 
L 322.532363 116.609844 
L 320.930723 120.785338 
L 318.230984 117.833829 
z
" style="stroke:#000000;stroke-linecap:round;"/>
   </g>
   <g id="patch_26">
    <path clip-path="url(#p91b0b653ad)" d="M 144.910407 279.080243 
Q 260.014821 266.641101 366.22674 255.162956 
" style="fill:none;stroke:#000000;stroke-linecap:round;stroke-width:8;"/>
    <path clip-path="url(#p91b0b653ad)" d="M 362.035009 253.604305 
L 366.22674 255.162956 
L 362.46478 257.58115 
L 362.035009 253.604305 
z
" style="stroke:#000000;stroke-linecap:round;stroke-width:8;"/>
   </g>
   <g id="patch_27">
    <path clip-path="url(#p91b0b653ad)" d="M 88.589752 178.964692 
Q 165.947672 126.889115 241.450664 76.062233 
" style="fill:none;stroke:#000000;stroke-linecap:round;stroke-width:2;"/>
    <path clip-path="url(#p91b0b653ad)" d="M 237.0156 76.636869 
L 241.450664 76.062233 
L 239.249334 79.955066 
L 237.0156 76.636869 
z
" style="stroke:#000000;stroke-linecap:round;stroke-width:2;"/>
   </g>
   <g id="patch_28">
    <path clip-path="url(#p91b0b653ad)" d="M 88.589752 178.964692 
Q 114.626539 225.247664 139.566985 269.581781 
" style="fill:none;stroke:#000000;stroke-linecap:round;stroke-width:2;"/>
    <path clip-path="url(#p91b0b653ad)" d="M 139.3489 265.114966 
L 139.566985 269.581781 
L 135.862682 267.07616 
L 139.3489 265.114966 
z
" style="stroke:#000000;stroke-linecap:round;stroke-width:2;"/>
   </g>
   <g id="patch_29">
    <path clip-path="url(#p91b0b653ad)" d="M 88.589752 178.964692 
Q 231.960499 215.06074 374.247046 250.883822 
" style="fill:none;stroke:#000000;stroke-linecap:round;"/>
    <path clip-path="url(#p91b0b653ad)" d="M 370.85639 247.967753 
L 374.247046 250.883822 
L 369.879797 251.846705 
L 370.85639 247.967753 
z
" style="stroke:#000000;stroke-linecap:round;"/>
   </g>
   <g id="patch_30">
    <path clip-path="url(#p91b0b653ad)" d="M 304.111967 128.287594 
Q 280.232726 102.318824 257.110251 77.173041 
" style="fill:none;stroke:#000000;stroke-linecap:round;"/>
    <path clip-path="url(#p91b0b653ad)" d="M 258.345537 81.471188 
L 257.110251 77.173041 
L 261.28994 78.7637 
L 258.345537 81.471188 
z
" style="stroke:#000000;stroke-linecap:round;"/>
   </g>
   <g id="patch_31">
    <path clip-path="url(#p91b0b653ad)" d="M 304.111967 128.287594 
Q 341.594615 187.127389 377.275189 243.138309 
" style="fill:none;stroke:#000000;stroke-linecap:round;stroke-width:3;"/>
    <path clip-path="url(#p91b0b653ad)" d="M 376.812904 238.690131 
L 377.275189 243.138309 
L 373.439275 240.83923 
L 376.812904 238.690131 
z
" style="stroke:#000000;stroke-linecap:round;stroke-width:3;"/>
   </g>
   <g id="patch_32">
    <path clip-path="url(#p91b0b653ad)" d="M 329.745448 110.012052 
Q 293.984931 91.946969 259.222342 74.386008 
" style="fill:none;stroke:#000000;stroke-linecap:round;"/>
    <path clip-path="url(#p91b0b653ad)" d="M 261.890839 77.974757 
L 259.222342 74.386008 
L 263.69444 74.40446 
L 261.890839 77.974757 
z
" style="stroke:#000000;stroke-linecap:round;"/>
   </g>
   <g id="patch_33">
    <path clip-path="url(#p91b0b653ad)" d="M 329.745448 110.012052 
Q 240.521984 191.624551 152.123492 272.482451 
" style="fill:none;stroke:#000000;stroke-linecap:round;"/>
    <path clip-path="url(#p91b0b653ad)" d="M 156.424871 271.258467 
L 152.123492 272.482451 
L 153.725132 268.306957 
L 156.424871 271.258467 
z
" style="stroke:#000000;stroke-linecap:round;"/>
   </g>
   <g id="patch_34">
    <path clip-path="url(#p91b0b653ad)" d="M 383.730248 253.271381 
Q 319.657565 165.126648 260.8439 84.216741 
" style="fill:none;stroke:#000000;stroke-linecap:round;stroke-width:8;"/>
    <path clip-path="url(#p91b0b653ad)" d="M 261.578048 88.628207 
L 260.8439 84.216741 
L 264.813561 86.276302 
L 261.578048 88.628207 
z
" style="stroke:#000000;stroke-linecap:round;stroke-width:8;"/>
   </g>
   <g id="patch_35">
    <path clip-path="url(#p91b0b653ad)" d="M 383.730248 253.271381 
Q 268.625833 265.710523 162.413915 277.188668 
" style="fill:none;stroke:#000000;stroke-linecap:round;stroke-width:8;"/>
    <path clip-path="url(#p91b0b653ad)" d="M 166.605646 278.74732 
L 162.413915 277.188668 
L 166.175875 274.770475 
L 166.605646 278.74732 
z
" style="stroke:#000000;stroke-linecap:round;stroke-width:8;"/>
   </g>
   <g id="patch_36">
    <path clip-path="url(#p91b0b653ad)" d="M 383.730248 253.271381 
Q 240.359501 217.175333 98.072954 181.352251 
" style="fill:none;stroke:#000000;stroke-linecap:round;"/>
    <path clip-path="url(#p91b0b653ad)" d="M 101.46361 184.26832 
L 98.072954 181.352251 
L 102.440203 180.389368 
L 101.46361 184.26832 
z
" style="stroke:#000000;stroke-linecap:round;"/>
   </g>
   <g id="patch_37">
    <path clip-path="url(#p91b0b653ad)" d="M 383.730248 253.271381 
Q 346.2476 194.431586 310.567026 138.420666 
" style="fill:none;stroke:#000000;stroke-linecap:round;stroke-width:3;"/>
    <path clip-path="url(#p91b0b653ad)" d="M 311.029311 142.868844 
L 310.567026 138.420666 
L 314.40294 140.719745 
L 311.029311 142.868844 
z
" style="stroke:#000000;stroke-linecap:round;stroke-width:3;"/>
   </g>
   <g id="PathCollection_1">
    <defs>
     <path d="M 0 22.36068 
C 5.930122 22.36068 11.618159 20.004617 15.811388 15.811388 
C 20.004617 11.618159 22.36068 5.930122 22.36068 0 
C 22.36068 -5.930122 20.004617 -11.618159 15.811388 -15.811388 
C 11.618159 -20.004617 5.930122 -22.36068 0 -22.36068 
C -5.930122 -22.36068 -11.618159 -20.004617 -15.811388 -15.811388 
C -20.004617 -11.618159 -22.36068 -5.930122 -22.36068 0 
C -22.36068 5.930122 -20.004617 11.618159 -15.811388 15.811388 
C -11.618159 20.004617 -5.930122 22.36068 0 22.36068 
z
" id="C0_0_7e04c1724f"/>
    </defs>
    <g clip-path="url(#p91b0b653ad)">
     <use style="fill:#0000ff;stroke:#0000ff;" x="250.492083" xlink:href="#C0_0_7e04c1724f" y="69.975757"/>
    </g>
    <g clip-path="url(#p91b0b653ad)">
     <use style="fill:#0000ff;stroke:#0000ff;" x="144.910407" xlink:href="#C0_0_7e04c1724f" y="279.080243"/>
    </g>
    <g clip-path="url(#p91b0b653ad)">
     <use style="fill:#008000;stroke:#008000;" x="88.589752" xlink:href="#C0_0_7e04c1724f" y="178.964692"/>
    </g>
    <g clip-path="url(#p91b0b653ad)">
     <use style="fill:#008000;stroke:#008000;" x="304.111967" xlink:href="#C0_0_7e04c1724f" y="128.287594"/>
    </g>
    <g clip-path="url(#p91b0b653ad)">
     <use style="fill:#008000;stroke:#008000;" x="329.745448" xlink:href="#C0_0_7e04c1724f" y="110.012052"/>
    </g>
    <g clip-path="url(#p91b0b653ad)">
     <use style="fill:#ff0000;stroke:#ff0000;" x="383.730248" xlink:href="#C0_0_7e04c1724f" y="253.271381"/>
    </g>
   </g>
   <g id="text_1">
    <g clip-path="url(#p91b0b653ad)">
     <!-- ICL -->
     <defs>
      <path d="M 9.8125 72.90625 
L 19.671875 72.90625 
L 19.671875 0 
L 9.8125 0 
z
" id="DejaVuSans-49"/>
      <path d="M 64.40625 67.28125 
L 64.40625 56.890625 
Q 59.421875 61.53125 53.78125 63.8125 
Q 48.140625 66.109375 41.796875 66.109375 
Q 29.296875 66.109375 22.65625 58.46875 
Q 16.015625 50.828125 16.015625 36.375 
Q 16.015625 21.96875 22.65625 14.328125 
Q 29.296875 6.6875 41.796875 6.6875 
Q 48.140625 6.6875 53.78125 8.984375 
Q 59.421875 11.28125 64.40625 15.921875 
L 64.40625 5.609375 
Q 59.234375 2.09375 53.4375 0.328125 
Q 47.65625 -1.421875 41.21875 -1.421875 
Q 24.65625 -1.421875 15.125 8.703125 
Q 5.609375 18.84375 5.609375 36.375 
Q 5.609375 53.953125 15.125 64.078125 
Q 24.65625 74.21875 41.21875 74.21875 
Q 47.75 74.21875 53.53125 72.484375 
Q 59.328125 70.75 64.40625 67.28125 
z
" id="DejaVuSans-43"/>
      <path d="M 9.8125 72.90625 
L 19.671875 72.90625 
L 19.671875 8.296875 
L 55.171875 8.296875 
L 55.171875 0 
L 9.8125 0 
z
" id="DejaVuSans-4c"/>
     </defs>
     <g transform="translate(241.189271 73.287007)scale(0.12 -0.12)">
      <use xlink:href="#DejaVuSans-49"/>
      <use x="29.492188" xlink:href="#DejaVuSans-43"/>
      <use x="99.316406" xlink:href="#DejaVuSans-4c"/>
     </g>
    </g>
   </g>
   <g id="text_2">
    <g clip-path="url(#p91b0b653ad)">
     <!-- UoR -->
     <defs>
      <path d="M 8.6875 72.90625 
L 18.609375 72.90625 
L 18.609375 28.609375 
Q 18.609375 16.890625 22.84375 11.734375 
Q 27.09375 6.59375 36.625 6.59375 
Q 46.09375 6.59375 50.34375 11.734375 
Q 54.59375 16.890625 54.59375 28.609375 
L 54.59375 72.90625 
L 64.5 72.90625 
L 64.5 27.390625 
Q 64.5 13.140625 57.4375 5.859375 
Q 50.390625 -1.421875 36.625 -1.421875 
Q 22.796875 -1.421875 15.734375 5.859375 
Q 8.6875 13.140625 8.6875 27.390625 
z
" id="DejaVuSans-55"/>
      <path d="M 30.609375 48.390625 
Q 23.390625 48.390625 19.1875 42.75 
Q 14.984375 37.109375 14.984375 27.296875 
Q 14.984375 17.484375 19.15625 11.84375 
Q 23.34375 6.203125 30.609375 6.203125 
Q 37.796875 6.203125 41.984375 11.859375 
Q 46.1875 17.53125 46.1875 27.296875 
Q 46.1875 37.015625 41.984375 42.703125 
Q 37.796875 48.390625 30.609375 48.390625 
z
M 30.609375 56 
Q 42.328125 56 49.015625 48.375 
Q 55.71875 40.765625 55.71875 27.296875 
Q 55.71875 13.875 49.015625 6.21875 
Q 42.328125 -1.421875 30.609375 -1.421875 
Q 18.84375 -1.421875 12.171875 6.21875 
Q 5.515625 13.875 5.515625 27.296875 
Q 5.515625 40.765625 12.171875 48.375 
Q 18.84375 56 30.609375 56 
z
" id="DejaVuSans-6f"/>
      <path d="M 44.390625 34.1875 
Q 47.5625 33.109375 50.5625 29.59375 
Q 53.5625 26.078125 56.59375 19.921875 
L 66.609375 0 
L 56 0 
L 46.6875 18.703125 
Q 43.0625 26.03125 39.671875 28.421875 
Q 36.28125 30.8125 30.421875 30.8125 
L 19.671875 30.8125 
L 19.671875 0 
L 9.8125 0 
L 9.8125 72.90625 
L 32.078125 72.90625 
Q 44.578125 72.90625 50.734375 67.671875 
Q 56.890625 62.453125 56.890625 51.90625 
Q 56.890625 45.015625 53.6875 40.46875 
Q 50.484375 35.9375 44.390625 34.1875 
z
M 19.671875 64.796875 
L 19.671875 38.921875 
L 32.078125 38.921875 
Q 39.203125 38.921875 42.84375 42.21875 
Q 46.484375 45.515625 46.484375 51.90625 
Q 46.484375 58.296875 42.84375 61.546875 
Q 39.203125 64.796875 32.078125 64.796875 
z
" id="DejaVuSans-52"/>
     </defs>
     <g transform="translate(132.678844 282.391493)scale(0.12 -0.12)">
      <use xlink:href="#DejaVuSans-55"/>
      <use x="73.193359" xlink:href="#DejaVuSans-6f"/>
      <use x="134.375" xlink:href="#DejaVuSans-52"/>
     </g>
    </g>
   </g>
   <g id="text_3">
    <g clip-path="url(#p91b0b653ad)">
     <!-- CEH -->
     <defs>
      <path d="M 9.8125 72.90625 
L 55.90625 72.90625 
L 55.90625 64.59375 
L 19.671875 64.59375 
L 19.671875 43.015625 
L 54.390625 43.015625 
L 54.390625 34.71875 
L 19.671875 34.71875 
L 19.671875 8.296875 
L 56.78125 8.296875 
L 56.78125 0 
L 9.8125 0 
z
" id="DejaVuSans-45"/>
      <path d="M 9.8125 72.90625 
L 19.671875 72.90625 
L 19.671875 43.015625 
L 55.515625 43.015625 
L 55.515625 72.90625 
L 65.375 72.90625 
L 65.375 0 
L 55.515625 0 
L 55.515625 34.71875 
L 19.671875 34.71875 
L 19.671875 0 
L 9.8125 0 
z
" id="DejaVuSans-48"/>
     </defs>
     <g transform="translate(76.096627 182.275942)scale(0.12 -0.12)">
      <use xlink:href="#DejaVuSans-43"/>
      <use x="69.824219" xlink:href="#DejaVuSans-45"/>
      <use x="133.007812" xlink:href="#DejaVuSans-48"/>
     </g>
    </g>
   </g>
   <g id="text_4">
    <g clip-path="url(#p91b0b653ad)">
     <!-- ZSL -->
     <defs>
      <path d="M 5.609375 72.90625 
L 62.890625 72.90625 
L 62.890625 65.375 
L 16.796875 8.296875 
L 64.015625 8.296875 
L 64.015625 0 
L 4.5 0 
L 4.5 7.515625 
L 50.59375 64.59375 
L 5.609375 64.59375 
z
" id="DejaVuSans-5a"/>
      <path d="M 53.515625 70.515625 
L 53.515625 60.890625 
Q 47.90625 63.578125 42.921875 64.890625 
Q 37.9375 66.21875 33.296875 66.21875 
Q 25.25 66.21875 20.875 63.09375 
Q 16.5 59.96875 16.5 54.203125 
Q 16.5 49.359375 19.40625 46.890625 
Q 22.3125 44.4375 30.421875 42.921875 
L 36.375 41.703125 
Q 47.40625 39.59375 52.65625 34.296875 
Q 57.90625 29 57.90625 20.125 
Q 57.90625 9.515625 50.796875 4.046875 
Q 43.703125 -1.421875 29.984375 -1.421875 
Q 24.8125 -1.421875 18.96875 -0.25 
Q 13.140625 0.921875 6.890625 3.21875 
L 6.890625 13.375 
Q 12.890625 10.015625 18.65625 8.296875 
Q 24.421875 6.59375 29.984375 6.59375 
Q 38.421875 6.59375 43.015625 9.90625 
Q 47.609375 13.234375 47.609375 19.390625 
Q 47.609375 24.75 44.3125 27.78125 
Q 41.015625 30.8125 33.5 32.328125 
L 27.484375 33.5 
Q 16.453125 35.6875 11.515625 40.375 
Q 6.59375 45.0625 6.59375 53.421875 
Q 6.59375 63.09375 13.40625 68.65625 
Q 20.21875 74.21875 32.171875 74.21875 
Q 37.3125 74.21875 42.625 73.28125 
Q 47.953125 72.359375 53.515625 70.515625 
z
" id="DejaVuSans-53"/>
     </defs>
     <g transform="translate(292.849779 131.598844)scale(0.12 -0.12)">
      <use xlink:href="#DejaVuSans-5a"/>
      <use x="68.505859" xlink:href="#DejaVuSans-53"/>
      <use x="131.982422" xlink:href="#DejaVuSans-4c"/>
     </g>
    </g>
   </g>
   <g id="text_5">
    <g clip-path="url(#p91b0b653ad)">
     <!-- CEFAS -->
     <defs>
      <path d="M 9.8125 72.90625 
L 51.703125 72.90625 
L 51.703125 64.59375 
L 19.671875 64.59375 
L 19.671875 43.109375 
L 48.578125 43.109375 
L 48.578125 34.8125 
L 19.671875 34.8125 
L 19.671875 0 
L 9.8125 0 
z
" id="DejaVuSans-46"/>
      <path d="M 34.1875 63.1875 
L 20.796875 26.90625 
L 47.609375 26.90625 
z
M 28.609375 72.90625 
L 39.796875 72.90625 
L 67.578125 0 
L 57.328125 0 
L 50.6875 18.703125 
L 17.828125 18.703125 
L 11.1875 0 
L 0.78125 0 
z
" id="DejaVuSans-41"/>
     </defs>
     <g transform="translate(310.408573 113.323302)scale(0.12 -0.12)">
      <use xlink:href="#DejaVuSans-43"/>
      <use x="69.824219" xlink:href="#DejaVuSans-45"/>
      <use x="133.007812" xlink:href="#DejaVuSans-46"/>
      <use x="190.386719" xlink:href="#DejaVuSans-41"/>
      <use x="258.794922" xlink:href="#DejaVuSans-53"/>
     </g>
    </g>
   </g>
   <g id="text_6">
    <g clip-path="url(#p91b0b653ad)">
     <!-- NonAc -->
     <defs>
      <path d="M 9.8125 72.90625 
L 23.09375 72.90625 
L 55.421875 11.921875 
L 55.421875 72.90625 
L 64.984375 72.90625 
L 64.984375 0 
L 51.703125 0 
L 19.390625 60.984375 
L 19.390625 0 
L 9.8125 0 
z
" id="DejaVuSans-4e"/>
      <path d="M 54.890625 33.015625 
L 54.890625 0 
L 45.90625 0 
L 45.90625 32.71875 
Q 45.90625 40.484375 42.875 44.328125 
Q 39.84375 48.1875 33.796875 48.1875 
Q 26.515625 48.1875 22.3125 43.546875 
Q 18.109375 38.921875 18.109375 30.90625 
L 18.109375 0 
L 9.078125 0 
L 9.078125 54.6875 
L 18.109375 54.6875 
L 18.109375 46.1875 
Q 21.34375 51.125 25.703125 53.5625 
Q 30.078125 56 35.796875 56 
Q 45.21875 56 50.046875 50.171875 
Q 54.890625 44.34375 54.890625 33.015625 
z
" id="DejaVuSans-6e"/>
      <path d="M 48.78125 52.59375 
L 48.78125 44.1875 
Q 44.96875 46.296875 41.140625 47.34375 
Q 37.3125 48.390625 33.40625 48.390625 
Q 24.65625 48.390625 19.8125 42.84375 
Q 14.984375 37.3125 14.984375 27.296875 
Q 14.984375 17.28125 19.8125 11.734375 
Q 24.65625 6.203125 33.40625 6.203125 
Q 37.3125 6.203125 41.140625 7.25 
Q 44.96875 8.296875 48.78125 10.40625 
L 48.78125 2.09375 
Q 45.015625 0.34375 40.984375 -0.53125 
Q 36.96875 -1.421875 32.421875 -1.421875 
Q 20.0625 -1.421875 12.78125 6.34375 
Q 5.515625 14.109375 5.515625 27.296875 
Q 5.515625 40.671875 12.859375 48.328125 
Q 20.21875 56 33.015625 56 
Q 37.15625 56 41.109375 55.140625 
Q 45.0625 54.296875 48.78125 52.59375 
z
" id="DejaVuSans-63"/>
     </defs>
     <g transform="translate(364.365248 256.582631)scale(0.12 -0.12)">
      <use xlink:href="#DejaVuSans-4e"/>
      <use x="74.804688" xlink:href="#DejaVuSans-6f"/>
      <use x="135.986328" xlink:href="#DejaVuSans-6e"/>
      <use x="199.365234" xlink:href="#DejaVuSans-41"/>
      <use x="267.757812" xlink:href="#DejaVuSans-63"/>
     </g>
    </g>
   </g>
   <g id="legend_1">
    <g id="patch_38">
     <path d="M 64.6 93.506375 
L 198.340625 93.506375 
Q 200.340625 93.506375 200.340625 91.506375 
L 200.340625 48.472 
Q 200.340625 46.472 198.340625 46.472 
L 64.6 46.472 
Q 62.6 46.472 62.6 48.472 
L 62.6 91.506375 
Q 62.6 93.506375 64.6 93.506375 
z
" style="fill:#ffffff;opacity:0.8;stroke:#cccccc;stroke-linejoin:miter;"/>
    </g>
    <g id="patch_39">
     <path d="M 66.6 58.070438 
L 86.6 58.070438 
L 86.6 51.070438 
L 66.6 51.070438 
z
" style="fill:#0000ff;stroke:#0000ff;stroke-linejoin:miter;"/>
    </g>
    <g id="text_7">
     <!-- University -->
     <defs>
      <path d="M 9.421875 54.6875 
L 18.40625 54.6875 
L 18.40625 0 
L 9.421875 0 
z
M 9.421875 75.984375 
L 18.40625 75.984375 
L 18.40625 64.59375 
L 9.421875 64.59375 
z
" id="DejaVuSans-69"/>
      <path d="M 2.984375 54.6875 
L 12.5 54.6875 
L 29.59375 8.796875 
L 46.6875 54.6875 
L 56.203125 54.6875 
L 35.6875 0 
L 23.484375 0 
z
" id="DejaVuSans-76"/>
      <path d="M 56.203125 29.59375 
L 56.203125 25.203125 
L 14.890625 25.203125 
Q 15.484375 15.921875 20.484375 11.0625 
Q 25.484375 6.203125 34.421875 6.203125 
Q 39.59375 6.203125 44.453125 7.46875 
Q 49.3125 8.734375 54.109375 11.28125 
L 54.109375 2.78125 
Q 49.265625 0.734375 44.1875 -0.34375 
Q 39.109375 -1.421875 33.890625 -1.421875 
Q 20.796875 -1.421875 13.15625 6.1875 
Q 5.515625 13.8125 5.515625 26.8125 
Q 5.515625 40.234375 12.765625 48.109375 
Q 20.015625 56 32.328125 56 
Q 43.359375 56 49.78125 48.890625 
Q 56.203125 41.796875 56.203125 29.59375 
z
M 47.21875 32.234375 
Q 47.125 39.59375 43.09375 43.984375 
Q 39.0625 48.390625 32.421875 48.390625 
Q 24.90625 48.390625 20.390625 44.140625 
Q 15.875 39.890625 15.1875 32.171875 
z
" id="DejaVuSans-65"/>
      <path d="M 41.109375 46.296875 
Q 39.59375 47.171875 37.8125 47.578125 
Q 36.03125 48 33.890625 48 
Q 26.265625 48 22.1875 43.046875 
Q 18.109375 38.09375 18.109375 28.8125 
L 18.109375 0 
L 9.078125 0 
L 9.078125 54.6875 
L 18.109375 54.6875 
L 18.109375 46.1875 
Q 20.953125 51.171875 25.484375 53.578125 
Q 30.03125 56 36.53125 56 
Q 37.453125 56 38.578125 55.875 
Q 39.703125 55.765625 41.0625 55.515625 
z
" id="DejaVuSans-72"/>
      <path d="M 44.28125 53.078125 
L 44.28125 44.578125 
Q 40.484375 46.53125 36.375 47.5 
Q 32.28125 48.484375 27.875 48.484375 
Q 21.1875 48.484375 17.84375 46.4375 
Q 14.5 44.390625 14.5 40.28125 
Q 14.5 37.15625 16.890625 35.375 
Q 19.28125 33.59375 26.515625 31.984375 
L 29.59375 31.296875 
Q 39.15625 29.25 43.1875 25.515625 
Q 47.21875 21.78125 47.21875 15.09375 
Q 47.21875 7.46875 41.1875 3.015625 
Q 35.15625 -1.421875 24.609375 -1.421875 
Q 20.21875 -1.421875 15.453125 -0.5625 
Q 10.6875 0.296875 5.421875 2 
L 5.421875 11.28125 
Q 10.40625 8.6875 15.234375 7.390625 
Q 20.0625 6.109375 24.8125 6.109375 
Q 31.15625 6.109375 34.5625 8.28125 
Q 37.984375 10.453125 37.984375 14.40625 
Q 37.984375 18.0625 35.515625 20.015625 
Q 33.0625 21.96875 24.703125 23.78125 
L 21.578125 24.515625 
Q 13.234375 26.265625 9.515625 29.90625 
Q 5.8125 33.546875 5.8125 39.890625 
Q 5.8125 47.609375 11.28125 51.796875 
Q 16.75 56 26.8125 56 
Q 31.78125 56 36.171875 55.265625 
Q 40.578125 54.546875 44.28125 53.078125 
z
" id="DejaVuSans-73"/>
      <path d="M 18.3125 70.21875 
L 18.3125 54.6875 
L 36.8125 54.6875 
L 36.8125 47.703125 
L 18.3125 47.703125 
L 18.3125 18.015625 
Q 18.3125 11.328125 20.140625 9.421875 
Q 21.96875 7.515625 27.59375 7.515625 
L 36.8125 7.515625 
L 36.8125 0 
L 27.59375 0 
Q 17.1875 0 13.234375 3.875 
Q 9.28125 7.765625 9.28125 18.015625 
L 9.28125 47.703125 
L 2.6875 47.703125 
L 2.6875 54.6875 
L 9.28125 54.6875 
L 9.28125 70.21875 
z
" id="DejaVuSans-74"/>
      <path d="M 32.171875 -5.078125 
Q 28.375 -14.84375 24.75 -17.8125 
Q 21.140625 -20.796875 15.09375 -20.796875 
L 7.90625 -20.796875 
L 7.90625 -13.28125 
L 13.1875 -13.28125 
Q 16.890625 -13.28125 18.9375 -11.515625 
Q 21 -9.765625 23.484375 -3.21875 
L 25.09375 0.875 
L 2.984375 54.6875 
L 12.5 54.6875 
L 29.59375 11.921875 
L 46.6875 54.6875 
L 56.203125 54.6875 
z
" id="DejaVuSans-79"/>
     </defs>
     <g transform="translate(94.6 58.070438)scale(0.1 -0.1)">
      <use xlink:href="#DejaVuSans-55"/>
      <use x="73.193359" xlink:href="#DejaVuSans-6e"/>
      <use x="136.572266" xlink:href="#DejaVuSans-69"/>
      <use x="164.355469" xlink:href="#DejaVuSans-76"/>
      <use x="223.535156" xlink:href="#DejaVuSans-65"/>
      <use x="285.058594" xlink:href="#DejaVuSans-72"/>
      <use x="326.171875" xlink:href="#DejaVuSans-73"/>
      <use x="378.271484" xlink:href="#DejaVuSans-69"/>
      <use x="406.054688" xlink:href="#DejaVuSans-74"/>
      <use x="445.263672" xlink:href="#DejaVuSans-79"/>
     </g>
    </g>
    <g id="patch_40">
     <path d="M 66.6 72.748563 
L 86.6 72.748563 
L 86.6 65.748563 
L 66.6 65.748563 
z
" style="fill:#008000;stroke:#008000;stroke-linejoin:miter;"/>
    </g>
    <g id="text_8">
     <!-- Hosting Partner -->
     <defs>
      <path d="M 45.40625 27.984375 
Q 45.40625 37.75 41.375 43.109375 
Q 37.359375 48.484375 30.078125 48.484375 
Q 22.859375 48.484375 18.828125 43.109375 
Q 14.796875 37.75 14.796875 27.984375 
Q 14.796875 18.265625 18.828125 12.890625 
Q 22.859375 7.515625 30.078125 7.515625 
Q 37.359375 7.515625 41.375 12.890625 
Q 45.40625 18.265625 45.40625 27.984375 
z
M 54.390625 6.78125 
Q 54.390625 -7.171875 48.1875 -13.984375 
Q 42 -20.796875 29.203125 -20.796875 
Q 24.46875 -20.796875 20.265625 -20.09375 
Q 16.0625 -19.390625 12.109375 -17.921875 
L 12.109375 -9.1875 
Q 16.0625 -11.328125 19.921875 -12.34375 
Q 23.78125 -13.375 27.78125 -13.375 
Q 36.625 -13.375 41.015625 -8.765625 
Q 45.40625 -4.15625 45.40625 5.171875 
L 45.40625 9.625 
Q 42.625 4.78125 38.28125 2.390625 
Q 33.9375 0 27.875 0 
Q 17.828125 0 11.671875 7.65625 
Q 5.515625 15.328125 5.515625 27.984375 
Q 5.515625 40.671875 11.671875 48.328125 
Q 17.828125 56 27.875 56 
Q 33.9375 56 38.28125 53.609375 
Q 42.625 51.21875 45.40625 46.390625 
L 45.40625 54.6875 
L 54.390625 54.6875 
z
" id="DejaVuSans-67"/>
      <path id="DejaVuSans-20"/>
      <path d="M 19.671875 64.796875 
L 19.671875 37.40625 
L 32.078125 37.40625 
Q 38.96875 37.40625 42.71875 40.96875 
Q 46.484375 44.53125 46.484375 51.125 
Q 46.484375 57.671875 42.71875 61.234375 
Q 38.96875 64.796875 32.078125 64.796875 
z
M 9.8125 72.90625 
L 32.078125 72.90625 
Q 44.34375 72.90625 50.609375 67.359375 
Q 56.890625 61.8125 56.890625 51.125 
Q 56.890625 40.328125 50.609375 34.8125 
Q 44.34375 29.296875 32.078125 29.296875 
L 19.671875 29.296875 
L 19.671875 0 
L 9.8125 0 
z
" id="DejaVuSans-50"/>
      <path d="M 34.28125 27.484375 
Q 23.390625 27.484375 19.1875 25 
Q 14.984375 22.515625 14.984375 16.5 
Q 14.984375 11.71875 18.140625 8.90625 
Q 21.296875 6.109375 26.703125 6.109375 
Q 34.1875 6.109375 38.703125 11.40625 
Q 43.21875 16.703125 43.21875 25.484375 
L 43.21875 27.484375 
z
M 52.203125 31.203125 
L 52.203125 0 
L 43.21875 0 
L 43.21875 8.296875 
Q 40.140625 3.328125 35.546875 0.953125 
Q 30.953125 -1.421875 24.3125 -1.421875 
Q 15.921875 -1.421875 10.953125 3.296875 
Q 6 8.015625 6 15.921875 
Q 6 25.140625 12.171875 29.828125 
Q 18.359375 34.515625 30.609375 34.515625 
L 43.21875 34.515625 
L 43.21875 35.40625 
Q 43.21875 41.609375 39.140625 45 
Q 35.0625 48.390625 27.6875 48.390625 
Q 23 48.390625 18.546875 47.265625 
Q 14.109375 46.140625 10.015625 43.890625 
L 10.015625 52.203125 
Q 14.9375 54.109375 19.578125 55.046875 
Q 24.21875 56 28.609375 56 
Q 40.484375 56 46.34375 49.84375 
Q 52.203125 43.703125 52.203125 31.203125 
z
" id="DejaVuSans-61"/>
     </defs>
     <g transform="translate(94.6 72.748563)scale(0.1 -0.1)">
      <use xlink:href="#DejaVuSans-48"/>
      <use x="75.195312" xlink:href="#DejaVuSans-6f"/>
      <use x="136.376953" xlink:href="#DejaVuSans-73"/>
      <use x="188.476562" xlink:href="#DejaVuSans-74"/>
      <use x="227.685547" xlink:href="#DejaVuSans-69"/>
      <use x="255.46875" xlink:href="#DejaVuSans-6e"/>
      <use x="318.847656" xlink:href="#DejaVuSans-67"/>
      <use x="382.324219" xlink:href="#DejaVuSans-20"/>
      <use x="414.111328" xlink:href="#DejaVuSans-50"/>
      <use x="474.351562" xlink:href="#DejaVuSans-61"/>
      <use x="535.630859" xlink:href="#DejaVuSans-72"/>
      <use x="576.744141" xlink:href="#DejaVuSans-74"/>
      <use x="615.953125" xlink:href="#DejaVuSans-6e"/>
      <use x="679.332031" xlink:href="#DejaVuSans-65"/>
      <use x="740.855469" xlink:href="#DejaVuSans-72"/>
     </g>
    </g>
    <g id="patch_41">
     <path d="M 66.6 87.426688 
L 86.6 87.426688 
L 86.6 80.426688 
L 66.6 80.426688 
z
" style="fill:#ff0000;stroke:#ff0000;stroke-linejoin:miter;"/>
    </g>
    <g id="text_9">
     <!-- Non-Hosting Partner -->
     <defs>
      <path d="M 4.890625 31.390625 
L 31.203125 31.390625 
L 31.203125 23.390625 
L 4.890625 23.390625 
z
" id="DejaVuSans-2d"/>
     </defs>
     <g transform="translate(94.6 87.426688)scale(0.1 -0.1)">
      <use xlink:href="#DejaVuSans-4e"/>
      <use x="74.804688" xlink:href="#DejaVuSans-6f"/>
      <use x="135.986328" xlink:href="#DejaVuSans-6e"/>
      <use x="199.365234" xlink:href="#DejaVuSans-2d"/>
      <use x="235.449219" xlink:href="#DejaVuSans-48"/>
      <use x="310.644531" xlink:href="#DejaVuSans-6f"/>
      <use x="371.826172" xlink:href="#DejaVuSans-73"/>
      <use x="423.925781" xlink:href="#DejaVuSans-74"/>
      <use x="463.134766" xlink:href="#DejaVuSans-69"/>
      <use x="490.917969" xlink:href="#DejaVuSans-6e"/>
      <use x="554.296875" xlink:href="#DejaVuSans-67"/>
      <use x="617.773438" xlink:href="#DejaVuSans-20"/>
      <use x="649.560547" xlink:href="#DejaVuSans-50"/>
      <use x="709.800781" xlink:href="#DejaVuSans-61"/>
      <use x="771.080078" xlink:href="#DejaVuSans-72"/>
      <use x="812.193359" xlink:href="#DejaVuSans-74"/>
      <use x="851.402344" xlink:href="#DejaVuSans-6e"/>
      <use x="914.78125" xlink:href="#DejaVuSans-65"/>
      <use x="976.304688" xlink:href="#DejaVuSans-72"/>
     </g>
    </g>
   </g>
  </g>
 </g>
 <defs>
  <clipPath id="p91b0b653ad">
   <rect height="266.112" width="357.12" x="57.6" y="41.472"/>
  </clipPath>
 </defs>
</svg>
