<?xml version="1.0" encoding="utf-8" standalone="no"?>
<!DOCTYPE svg PUBLIC "-//W3C//DTD SVG 1.1//EN"
  "http://www.w3.org/Graphics/SVG/1.1/DTD/svg11.dtd">
<!-- Created with matplotlib (http://matplotlib.org/) -->
<svg height="345.6pt" version="1.1" viewBox="0 0 460.8 345.6" width="460.8pt" xmlns="http://www.w3.org/2000/svg" xmlns:xlink="http://www.w3.org/1999/xlink">
 <defs>
  <style type="text/css">
*{stroke-linecap:butt;stroke-linejoin:round;}
  </style>
 </defs>
 <g id="figure_1">
  <g id="patch_1">
   <path d="M 0 345.6 
L 460.8 345.6 
L 460.8 0 
L 0 0 
z
" style="fill:#ffffff;"/>
  </g>
  <g id="axes_1">
   <g id="patch_2">
    <path clip-path="url(#p182c1d55bc)" d="M 274.156888 185.442899 
Q 306.58723 223.375545 338.291043 260.458393 
" style="fill:none;stroke:#000000;stroke-linecap:round;"/>
    <path clip-path="url(#p182c1d55bc)" d="M 337.211893 256.118412 
L 338.291043 260.458393 
L 334.171568 258.717724 
L 337.211893 256.118412 
z
" style="stroke:#000000;stroke-linecap:round;"/>
   </g>
   <g id="patch_3">
    <path clip-path="url(#p182c1d55bc)" d="M 274.156888 185.442899 
Q 292.845749 172.496277 310.61556 160.186322 
" style="fill:none;stroke:#000000;stroke-linecap:round;"/>
    <path clip-path="url(#p182c1d55bc)" d="M 306.188559 160.820087 
L 310.61556 160.186322 
L 308.466372 164.108182 
L 306.188559 160.820087 
z
" style="stroke:#000000;stroke-linecap:round;"/>
   </g>
   <g id="patch_4">
    <path clip-path="url(#p182c1d55bc)" d="M 274.156888 185.442899 
Q 191.50743 134.005238 109.807188 83.15833 
" style="fill:none;stroke:#000000;stroke-linecap:round;"/>
    <path clip-path="url(#p182c1d55bc)" d="M 112.146433 86.969882 
L 109.807188 83.15833 
L 114.259977 83.573864 
L 112.146433 86.969882 
z
" style="stroke:#000000;stroke-linecap:round;"/>
   </g>
   <g id="patch_5">
    <path clip-path="url(#p182c1d55bc)" d="M 274.156888 185.442899 
Q 236.563256 152.017617 199.805158 119.335224 
" style="fill:none;stroke:#000000;stroke-linecap:round;"/>
    <path clip-path="url(#p182c1d55bc)" d="M 201.465529 123.487713 
L 199.805158 119.335224 
L 204.123372 120.49842 
L 201.465529 123.487713 
z
" style="stroke:#000000;stroke-linecap:round;"/>
   </g>
   <g id="patch_6">
    <path clip-path="url(#p182c1d55bc)" d="M 382.445323 147.301733 
Q 370.404243 201.8862 358.604005 255.378881 
" style="fill:none;stroke:#000000;stroke-linecap:round;"/>
    <path clip-path="url(#p182c1d55bc)" d="M 361.418715 251.903625 
L 358.604005 255.378881 
L 357.512626 251.04196 
L 361.418715 251.903625 
z
" style="stroke:#000000;stroke-linecap:round;"/>
   </g>
   <g id="patch_7">
    <path clip-path="url(#p182c1d55bc)" d="M 382.445323 147.301733 
Q 246.974703 111.857014 112.585708 76.695292 
" style="fill:none;stroke:#000000;stroke-linecap:round;"/>
    <path clip-path="url(#p182c1d55bc)" d="M 115.949205 79.642645 
L 112.585708 76.695292 
L 116.961689 75.772906 
L 115.949205 79.642645 
z
" style="stroke:#000000;stroke-linecap:round;"/>
   </g>
   <g id="patch_8">
    <path clip-path="url(#p182c1d55bc)" d="M 382.445323 147.301733 
Q 293.276181 127.895068 205.1995 108.726165 
" style="fill:none;stroke:#000000;stroke-linecap:round;"/>
    <path clip-path="url(#p182c1d55bc)" d="M 208.682683 111.53106 
L 205.1995 108.726165 
L 209.533325 107.622555 
L 208.682683 111.53106 
z
" style="stroke:#000000;stroke-linecap:round;"/>
   </g>
   <g id="patch_9">
    <path clip-path="url(#p182c1d55bc)" d="M 353.547083 278.302854 
Q 321.116741 240.370209 289.412928 203.28736 
" style="fill:none;stroke:#000000;stroke-linecap:round;"/>
    <path clip-path="url(#p182c1d55bc)" d="M 290.492078 207.627341 
L 289.412928 203.28736 
L 293.532403 205.028029 
L 290.492078 207.627341 
z
" style="stroke:#000000;stroke-linecap:round;"/>
   </g>
   <g id="patch_10">
    <path clip-path="url(#p182c1d55bc)" d="M 353.547083 278.302854 
Q 365.588163 223.718387 377.388401 170.225706 
" style="fill:none;stroke:#000000;stroke-linecap:round;"/>
    <path clip-path="url(#p182c1d55bc)" d="M 374.573691 173.700963 
L 377.388401 170.225706 
L 378.47978 174.562628 
L 374.573691 173.700963 
z
" style="stroke:#000000;stroke-linecap:round;"/>
   </g>
   <g id="patch_11">
    <path clip-path="url(#p182c1d55bc)" d="M 353.547083 278.302854 
Q 275.731451 198.997137 198.698855 120.489451 
" style="fill:none;stroke:#000000;stroke-linecap:round;"/>
    <path clip-path="url(#p182c1d55bc)" d="M 200.072771 124.745313 
L 198.698855 120.489451 
L 202.927894 121.943835 
L 200.072771 124.745313 
z
" style="stroke:#000000;stroke-linecap:round;"/>
   </g>
   <g id="patch_12">
    <path clip-path="url(#p182c1d55bc)" d="M 329.91548 146.816392 
Q 311.226618 159.763015 293.456807 172.072969 
" style="fill:none;stroke:#000000;stroke-linecap:round;"/>
    <path clip-path="url(#p182c1d55bc)" d="M 297.883809 171.439204 
L 293.456807 172.072969 
L 295.605996 168.151109 
L 297.883809 171.439204 
z
" style="stroke:#000000;stroke-linecap:round;"/>
   </g>
   <g id="patch_13">
    <path clip-path="url(#p182c1d55bc)" d="M 329.91548 146.816392 
Q 266.817831 128.405916 204.793463 110.308599 
" style="fill:none;stroke:#000000;stroke-linecap:round;"/>
    <path clip-path="url(#p182c1d55bc)" d="M 208.073152 113.348934 
L 204.793463 110.308599 
L 209.193544 109.509049 
L 208.073152 113.348934 
z
" style="stroke:#000000;stroke-linecap:round;"/>
   </g>
   <g id="patch_14">
    <path clip-path="url(#p182c1d55bc)" d="M 89.874677 70.753146 
Q 172.524135 122.190807 254.224378 173.037715 
" style="fill:none;stroke:#000000;stroke-linecap:round;"/>
    <path clip-path="url(#p182c1d55bc)" d="M 251.885132 169.226163 
L 254.224378 173.037715 
L 249.771588 172.622181 
L 251.885132 169.226163 
z
" style="stroke:#000000;stroke-linecap:round;"/>
   </g>
   <g id="patch_15">
    <path clip-path="url(#p182c1d55bc)" d="M 89.874677 70.753146 
Q 225.345297 106.197866 359.734292 141.359588 
" style="fill:none;stroke:#000000;stroke-linecap:round;"/>
    <path clip-path="url(#p182c1d55bc)" d="M 356.370795 138.412235 
L 359.734292 141.359588 
L 355.358311 142.281973 
L 356.370795 138.412235 
z
" style="stroke:#000000;stroke-linecap:round;"/>
   </g>
   <g id="patch_16">
    <path clip-path="url(#p182c1d55bc)" d="M 182.257293 103.733051 
Q 219.850925 137.158334 256.609024 169.840727 
" style="fill:none;stroke:#000000;stroke-linecap:round;"/>
    <path clip-path="url(#p182c1d55bc)" d="M 254.948652 165.688237 
L 256.609024 169.840727 
L 252.290809 168.67753 
L 254.948652 165.688237 
z
" style="stroke:#000000;stroke-linecap:round;"/>
   </g>
   <g id="patch_17">
    <path clip-path="url(#p182c1d55bc)" d="M 182.257293 103.733051 
Q 271.426435 123.139716 359.503116 142.308619 
" style="fill:none;stroke:#000000;stroke-linecap:round;"/>
    <path clip-path="url(#p182c1d55bc)" d="M 356.019933 139.503725 
L 359.503116 142.308619 
L 355.169291 143.412229 
L 356.019933 139.503725 
z
" style="stroke:#000000;stroke-linecap:round;"/>
   </g>
   <g id="patch_18">
    <path clip-path="url(#p182c1d55bc)" d="M 182.257293 103.733051 
Q 260.072925 183.038768 337.105521 261.546454 
" style="fill:none;stroke:#000000;stroke-linecap:round;"/>
    <path clip-path="url(#p182c1d55bc)" d="M 335.731605 257.290592 
L 337.105521 261.546454 
L 332.876482 260.09207 
L 335.731605 257.290592 
z
" style="stroke:#000000;stroke-linecap:round;"/>
   </g>
   <g id="patch_19">
    <path clip-path="url(#p182c1d55bc)" d="M 182.257293 103.733051 
Q 245.354942 122.143527 307.37931 140.240844 
" style="fill:none;stroke:#000000;stroke-linecap:round;"/>
    <path clip-path="url(#p182c1d55bc)" d="M 304.099621 137.200509 
L 307.37931 140.240844 
L 302.979228 141.040394 
L 304.099621 137.200509 
z
" style="stroke:#000000;stroke-linecap:round;"/>
   </g>
   <g id="patch_20">
    <path clip-path="url(#p182c1d55bc)" d="M 274.156888 185.442899 
Q 311.037907 228.581347 346.465867 270.020202 
" style="fill:none;stroke:#000000;stroke-linecap:round;stroke-width:2;"/>
    <path clip-path="url(#p182c1d55bc)" d="M 345.386717 265.680221 
L 346.465867 270.020202 
L 342.346392 268.279533 
L 345.386717 265.680221 
z
" style="stroke:#000000;stroke-linecap:round;stroke-width:2;"/>
   </g>
   <g id="patch_21">
    <path clip-path="url(#p182c1d55bc)" d="M 274.156888 185.442899 
Q 298.478102 168.59449 321.880266 152.382749 
" style="fill:none;stroke:#000000;stroke-linecap:round;"/>
    <path clip-path="url(#p182c1d55bc)" d="M 317.453265 153.016514 
L 321.880266 152.382749 
L 319.731077 156.304609 
L 317.453265 153.016514 
z
" style="stroke:#000000;stroke-linecap:round;"/>
   </g>
   <g id="patch_22">
    <path clip-path="url(#p182c1d55bc)" d="M 274.156888 185.442899 
Q 185.692372 130.386183 98.177072 75.920219 
" style="fill:none;stroke:#000000;stroke-linecap:round;"/>
    <path clip-path="url(#p182c1d55bc)" d="M 100.516318 79.731771 
L 98.177072 75.920219 
L 102.629862 76.335754 
L 100.516318 79.731771 
z
" style="stroke:#000000;stroke-linecap:round;"/>
   </g>
   <g id="patch_23">
    <path clip-path="url(#p182c1d55bc)" d="M 274.156888 185.442899 
Q 231.442143 147.464327 195.411659 115.428873 
" style="fill:none;stroke:#000000;stroke-linecap:round;stroke-width:8;"/>
    <path clip-path="url(#p182c1d55bc)" d="M 197.072031 119.581362 
L 195.411659 115.428873 
L 199.729873 116.592069 
L 197.072031 119.581362 
z
" style="stroke:#000000;stroke-linecap:round;stroke-width:8;"/>
   </g>
   <g id="patch_24">
    <path clip-path="url(#p182c1d55bc)" d="M 382.445323 147.301733 
Q 368.928817 208.574581 355.893996 267.663859 
" style="fill:none;stroke:#000000;stroke-linecap:round;stroke-width:2;"/>
    <path clip-path="url(#p182c1d55bc)" d="M 358.708706 264.188602 
L 355.893996 267.663859 
L 354.802616 263.326937 
L 358.708706 264.188602 
z
" style="stroke:#000000;stroke-linecap:round;stroke-width:2;"/>
   </g>
   <g id="patch_25">
    <path clip-path="url(#p182c1d55bc)" d="M 382.445323 147.301733 
Q 240.349721 110.123644 99.335744 73.228553 
" style="fill:none;stroke:#000000;stroke-linecap:round;"/>
    <path clip-path="url(#p182c1d55bc)" d="M 102.69924 76.175906 
L 99.335744 73.228553 
L 103.711724 72.306167 
L 102.69924 76.175906 
z
" style="stroke:#000000;stroke-linecap:round;"/>
   </g>
   <g id="patch_26">
    <path clip-path="url(#p182c1d55bc)" d="M 382.445323 147.301733 
Q 286.583494 126.43848 199.461346 107.477321 
" style="fill:none;stroke:#000000;stroke-linecap:round;stroke-width:8;"/>
    <path clip-path="url(#p182c1d55bc)" d="M 202.94453 110.282215 
L 199.461346 107.477321 
L 203.795172 106.373711 
L 202.94453 110.282215 
z
" style="stroke:#000000;stroke-linecap:round;stroke-width:8;"/>
   </g>
   <g id="patch_27">
    <path clip-path="url(#p182c1d55bc)" d="M 353.547083 278.302854 
Q 316.666064 235.164406 281.238104 193.725552 
" style="fill:none;stroke:#000000;stroke-linecap:round;stroke-width:2;"/>
    <path clip-path="url(#p182c1d55bc)" d="M 282.317253 198.065533 
L 281.238104 193.725552 
L 285.357579 195.466221 
L 282.317253 198.065533 
z
" style="stroke:#000000;stroke-linecap:round;stroke-width:2;"/>
   </g>
   <g id="patch_28">
    <path clip-path="url(#p182c1d55bc)" d="M 353.547083 278.302854 
Q 367.063589 217.030006 380.09841 157.940729 
" style="fill:none;stroke:#000000;stroke-linecap:round;stroke-width:2;"/>
    <path clip-path="url(#p182c1d55bc)" d="M 377.2837 161.415985 
L 380.09841 157.940729 
L 381.189789 162.277651 
L 377.2837 161.415985 
z
" style="stroke:#000000;stroke-linecap:round;stroke-width:2;"/>
   </g>
   <g id="patch_29">
    <path clip-path="url(#p182c1d55bc)" d="M 353.547083 278.302854 
Q 270.935358 194.109204 189.106669 110.713585 
" style="fill:none;stroke:#000000;stroke-linecap:round;"/>
    <path clip-path="url(#p182c1d55bc)" d="M 190.480585 114.969446 
L 189.106669 110.713585 
L 193.335708 112.167969 
L 190.480585 114.969446 
z
" style="stroke:#000000;stroke-linecap:round;"/>
   </g>
   <g id="patch_30">
    <path clip-path="url(#p182c1d55bc)" d="M 329.91548 146.816392 
Q 305.594265 163.664801 282.192102 179.876542 
" style="fill:none;stroke:#000000;stroke-linecap:round;"/>
    <path clip-path="url(#p182c1d55bc)" d="M 286.619103 179.242777 
L 282.192102 179.876542 
L 284.34129 175.954682 
L 286.619103 179.242777 
z
" style="stroke:#000000;stroke-linecap:round;"/>
   </g>
   <g id="patch_31">
    <path clip-path="url(#p182c1d55bc)" d="M 329.91548 146.816392 
Q 260.243328 126.487624 193.791019 107.098333 
" style="fill:none;stroke:#000000;stroke-linecap:round;stroke-width:3;"/>
    <path clip-path="url(#p182c1d55bc)" d="M 197.070708 110.138668 
L 193.791019 107.098333 
L 198.191101 106.298783 
L 197.070708 110.138668 
z
" style="stroke:#000000;stroke-linecap:round;stroke-width:3;"/>
   </g>
   <g id="patch_32">
    <path clip-path="url(#p182c1d55bc)" d="M 89.874677 70.753146 
Q 178.339193 125.809863 265.854493 180.275826 
" style="fill:none;stroke:#000000;stroke-linecap:round;"/>
    <path clip-path="url(#p182c1d55bc)" d="M 263.515247 176.464274 
L 265.854493 180.275826 
L 261.401704 179.860292 
L 263.515247 176.464274 
z
" style="stroke:#000000;stroke-linecap:round;"/>
   </g>
   <g id="patch_33">
    <path clip-path="url(#p182c1d55bc)" d="M 89.874677 70.753146 
Q 231.970279 107.931235 372.984256 144.826327 
" style="fill:none;stroke:#000000;stroke-linecap:round;"/>
    <path clip-path="url(#p182c1d55bc)" d="M 369.62076 141.878974 
L 372.984256 144.826327 
L 368.608276 145.748712 
L 369.62076 141.878974 
z
" style="stroke:#000000;stroke-linecap:round;"/>
   </g>
   <g id="patch_34">
    <path clip-path="url(#p182c1d55bc)" d="M 182.257293 103.733051 
Q 224.972039 141.711623 261.002522 173.747078 
" style="fill:none;stroke:#000000;stroke-linecap:round;stroke-width:8;"/>
    <path clip-path="url(#p182c1d55bc)" d="M 259.34215 169.594589 
L 261.002522 173.747078 
L 256.684308 172.583882 
L 259.34215 169.594589 
z
" style="stroke:#000000;stroke-linecap:round;stroke-width:8;"/>
   </g>
   <g id="patch_35">
    <path clip-path="url(#p182c1d55bc)" d="M 182.257293 103.733051 
Q 278.119122 124.596304 365.24127 143.557464 
" style="fill:none;stroke:#000000;stroke-linecap:round;stroke-width:8;"/>
    <path clip-path="url(#p182c1d55bc)" d="M 361.758087 140.752569 
L 365.24127 143.557464 
L 360.907444 144.661074 
L 361.758087 140.752569 
z
" style="stroke:#000000;stroke-linecap:round;stroke-width:8;"/>
   </g>
   <g id="patch_36">
    <path clip-path="url(#p182c1d55bc)" d="M 182.257293 103.733051 
Q 264.869018 187.926701 346.697707 271.32232 
" style="fill:none;stroke:#000000;stroke-linecap:round;"/>
    <path clip-path="url(#p182c1d55bc)" d="M 345.323791 267.066459 
L 346.697707 271.32232 
L 342.468668 269.867936 
L 345.323791 267.066459 
z
" style="stroke:#000000;stroke-linecap:round;"/>
   </g>
   <g id="patch_37">
    <path clip-path="url(#p182c1d55bc)" d="M 182.257293 103.733051 
Q 251.929444 124.061819 318.381754 143.45111 
" style="fill:none;stroke:#000000;stroke-linecap:round;stroke-width:3;"/>
    <path clip-path="url(#p182c1d55bc)" d="M 315.102064 140.410775 
L 318.381754 143.45111 
L 313.981672 144.25066 
L 315.102064 140.410775 
z
" style="stroke:#000000;stroke-linecap:round;stroke-width:3;"/>
   </g>
   <g id="PathCollection_1">
    <defs>
     <path d="M 0 22.36068 
C 5.930122 22.36068 11.618159 20.004617 15.811388 15.811388 
C 20.004617 11.618159 22.36068 5.930122 22.36068 0 
C 22.36068 -5.930122 20.004617 -11.618159 15.811388 -15.811388 
C 11.618159 -20.004617 5.930122 -22.36068 0 -22.36068 
C -5.930122 -22.36068 -11.618159 -20.004617 -15.811388 -15.811388 
C -20.004617 -11.618159 -22.36068 -5.930122 -22.36068 0 
C -22.36068 5.930122 -20.004617 11.618159 -15.811388 15.811388 
C -11.618159 20.004617 -5.930122 22.36068 0 22.36068 
z
" id="C0_0_6eb775047c"/>
    </defs>
    <g clip-path="url(#p182c1d55bc)">
     <use style="fill:#0000ff;stroke:#0000ff;" x="274.156888" xlink:href="#C0_0_6eb775047c" y="185.442899"/>
    </g>
    <g clip-path="url(#p182c1d55bc)">
     <use style="fill:#0000ff;stroke:#0000ff;" x="382.445323" xlink:href="#C0_0_6eb775047c" y="147.301733"/>
    </g>
    <g clip-path="url(#p182c1d55bc)">
     <use style="fill:#008000;stroke:#008000;" x="353.547083" xlink:href="#C0_0_6eb775047c" y="278.302854"/>
    </g>
    <g clip-path="url(#p182c1d55bc)">
     <use style="fill:#008000;stroke:#008000;" x="329.91548" xlink:href="#C0_0_6eb775047c" y="146.816392"/>
    </g>
    <g clip-path="url(#p182c1d55bc)">
     <use style="fill:#008000;stroke:#008000;" x="89.874677" xlink:href="#C0_0_6eb775047c" y="70.753146"/>
    </g>
    <g clip-path="url(#p182c1d55bc)">
     <use style="fill:#ff0000;stroke:#ff0000;" x="182.257293" xlink:href="#C0_0_6eb775047c" y="103.733051"/>
    </g>
   </g>
   <g id="text_1">
    <g clip-path="url(#p182c1d55bc)">
     <!-- ICL -->
     <defs>
      <path d="M 9.8125 72.90625 
L 19.671875 72.90625 
L 19.671875 0 
L 9.8125 0 
z
" id="DejaVuSans-49"/>
      <path d="M 64.40625 67.28125 
L 64.40625 56.890625 
Q 59.421875 61.53125 53.78125 63.8125 
Q 48.140625 66.109375 41.796875 66.109375 
Q 29.296875 66.109375 22.65625 58.46875 
Q 16.015625 50.828125 16.015625 36.375 
Q 16.015625 21.96875 22.65625 14.328125 
Q 29.296875 6.6875 41.796875 6.6875 
Q 48.140625 6.6875 53.78125 8.984375 
Q 59.421875 11.28125 64.40625 15.921875 
L 64.40625 5.609375 
Q 59.234375 2.09375 53.4375 0.328125 
Q 47.65625 -1.421875 41.21875 -1.421875 
Q 24.65625 -1.421875 15.125 8.703125 
Q 5.609375 18.84375 5.609375 36.375 
Q 5.609375 53.953125 15.125 64.078125 
Q 24.65625 74.21875 41.21875 74.21875 
Q 47.75 74.21875 53.53125 72.484375 
Q 59.328125 70.75 64.40625 67.28125 
z
" id="DejaVuSans-43"/>
      <path d="M 9.8125 72.90625 
L 19.671875 72.90625 
L 19.671875 8.296875 
L 55.171875 8.296875 
L 55.171875 0 
L 9.8125 0 
z
" id="DejaVuSans-4c"/>
     </defs>
     <g transform="translate(264.854076 188.754149)scale(0.12 -0.12)">
      <use xlink:href="#DejaVuSans-49"/>
      <use x="29.492188" xlink:href="#DejaVuSans-43"/>
      <use x="99.316406" xlink:href="#DejaVuSans-4c"/>
     </g>
    </g>
   </g>
   <g id="text_2">
    <g clip-path="url(#p182c1d55bc)">
     <!-- UoR -->
     <defs>
      <path d="M 8.6875 72.90625 
L 18.609375 72.90625 
L 18.609375 28.609375 
Q 18.609375 16.890625 22.84375 11.734375 
Q 27.09375 6.59375 36.625 6.59375 
Q 46.09375 6.59375 50.34375 11.734375 
Q 54.59375 16.890625 54.59375 28.609375 
L 54.59375 72.90625 
L 64.5 72.90625 
L 64.5 27.390625 
Q 64.5 13.140625 57.4375 5.859375 
Q 50.390625 -1.421875 36.625 -1.421875 
Q 22.796875 -1.421875 15.734375 5.859375 
Q 8.6875 13.140625 8.6875 27.390625 
z
" id="DejaVuSans-55"/>
      <path d="M 30.609375 48.390625 
Q 23.390625 48.390625 19.1875 42.75 
Q 14.984375 37.109375 14.984375 27.296875 
Q 14.984375 17.484375 19.15625 11.84375 
Q 23.34375 6.203125 30.609375 6.203125 
Q 37.796875 6.203125 41.984375 11.859375 
Q 46.1875 17.53125 46.1875 27.296875 
Q 46.1875 37.015625 41.984375 42.703125 
Q 37.796875 48.390625 30.609375 48.390625 
z
M 30.609375 56 
Q 42.328125 56 49.015625 48.375 
Q 55.71875 40.765625 55.71875 27.296875 
Q 55.71875 13.875 49.015625 6.21875 
Q 42.328125 -1.421875 30.609375 -1.421875 
Q 18.84375 -1.421875 12.171875 6.21875 
Q 5.515625 13.875 5.515625 27.296875 
Q 5.515625 40.765625 12.171875 48.375 
Q 18.84375 56 30.609375 56 
z
" id="DejaVuSans-6f"/>
      <path d="M 44.390625 34.1875 
Q 47.5625 33.109375 50.5625 29.59375 
Q 53.5625 26.078125 56.59375 19.921875 
L 66.609375 0 
L 56 0 
L 46.6875 18.703125 
Q 43.0625 26.03125 39.671875 28.421875 
Q 36.28125 30.8125 30.421875 30.8125 
L 19.671875 30.8125 
L 19.671875 0 
L 9.8125 0 
L 9.8125 72.90625 
L 32.078125 72.90625 
Q 44.578125 72.90625 50.734375 67.671875 
Q 56.890625 62.453125 56.890625 51.90625 
Q 56.890625 45.015625 53.6875 40.46875 
Q 50.484375 35.9375 44.390625 34.1875 
z
M 19.671875 64.796875 
L 19.671875 38.921875 
L 32.078125 38.921875 
Q 39.203125 38.921875 42.84375 42.21875 
Q 46.484375 45.515625 46.484375 51.90625 
Q 46.484375 58.296875 42.84375 61.546875 
Q 39.203125 64.796875 32.078125 64.796875 
z
" id="DejaVuSans-52"/>
     </defs>
     <g transform="translate(370.213761 150.612983)scale(0.12 -0.12)">
      <use xlink:href="#DejaVuSans-55"/>
      <use x="73.193359" xlink:href="#DejaVuSans-6f"/>
      <use x="134.375" xlink:href="#DejaVuSans-52"/>
     </g>
    </g>
   </g>
   <g id="text_3">
    <g clip-path="url(#p182c1d55bc)">
     <!-- CEH -->
     <defs>
      <path d="M 9.8125 72.90625 
L 55.90625 72.90625 
L 55.90625 64.59375 
L 19.671875 64.59375 
L 19.671875 43.015625 
L 54.390625 43.015625 
L 54.390625 34.71875 
L 19.671875 34.71875 
L 19.671875 8.296875 
L 56.78125 8.296875 
L 56.78125 0 
L 9.8125 0 
z
" id="DejaVuSans-45"/>
      <path d="M 9.8125 72.90625 
L 19.671875 72.90625 
L 19.671875 43.015625 
L 55.515625 43.015625 
L 55.515625 72.90625 
L 65.375 72.90625 
L 65.375 0 
L 55.515625 0 
L 55.515625 34.71875 
L 19.671875 34.71875 
L 19.671875 0 
L 9.8125 0 
z
" id="DejaVuSans-48"/>
     </defs>
     <g transform="translate(341.053958 281.614104)scale(0.12 -0.12)">
      <use xlink:href="#DejaVuSans-43"/>
      <use x="69.824219" xlink:href="#DejaVuSans-45"/>
      <use x="133.007812" xlink:href="#DejaVuSans-48"/>
     </g>
    </g>
   </g>
   <g id="text_4">
    <g clip-path="url(#p182c1d55bc)">
     <!-- ZSL -->
     <defs>
      <path d="M 5.609375 72.90625 
L 62.890625 72.90625 
L 62.890625 65.375 
L 16.796875 8.296875 
L 64.015625 8.296875 
L 64.015625 0 
L 4.5 0 
L 4.5 7.515625 
L 50.59375 64.59375 
L 5.609375 64.59375 
z
" id="DejaVuSans-5a"/>
      <path d="M 53.515625 70.515625 
L 53.515625 60.890625 
Q 47.90625 63.578125 42.921875 64.890625 
Q 37.9375 66.21875 33.296875 66.21875 
Q 25.25 66.21875 20.875 63.09375 
Q 16.5 59.96875 16.5 54.203125 
Q 16.5 49.359375 19.40625 46.890625 
Q 22.3125 44.4375 30.421875 42.921875 
L 36.375 41.703125 
Q 47.40625 39.59375 52.65625 34.296875 
Q 57.90625 29 57.90625 20.125 
Q 57.90625 9.515625 50.796875 4.046875 
Q 43.703125 -1.421875 29.984375 -1.421875 
Q 24.8125 -1.421875 18.96875 -0.25 
Q 13.140625 0.921875 6.890625 3.21875 
L 6.890625 13.375 
Q 12.890625 10.015625 18.65625 8.296875 
Q 24.421875 6.59375 29.984375 6.59375 
Q 38.421875 6.59375 43.015625 9.90625 
Q 47.609375 13.234375 47.609375 19.390625 
Q 47.609375 24.75 44.3125 27.78125 
Q 41.015625 30.8125 33.5 32.328125 
L 27.484375 33.5 
Q 16.453125 35.6875 11.515625 40.375 
Q 6.59375 45.0625 6.59375 53.421875 
Q 6.59375 63.09375 13.40625 68.65625 
Q 20.21875 74.21875 32.171875 74.21875 
Q 37.3125 74.21875 42.625 73.28125 
Q 47.953125 72.359375 53.515625 70.515625 
z
" id="DejaVuSans-53"/>
     </defs>
     <g transform="translate(318.653292 150.127642)scale(0.12 -0.12)">
      <use xlink:href="#DejaVuSans-5a"/>
      <use x="68.505859" xlink:href="#DejaVuSans-53"/>
      <use x="131.982422" xlink:href="#DejaVuSans-4c"/>
     </g>
    </g>
   </g>
   <g id="text_5">
    <g clip-path="url(#p182c1d55bc)">
     <!-- CEFAS -->
     <defs>
      <path d="M 9.8125 72.90625 
L 51.703125 72.90625 
L 51.703125 64.59375 
L 19.671875 64.59375 
L 19.671875 43.109375 
L 48.578125 43.109375 
L 48.578125 34.8125 
L 19.671875 34.8125 
L 19.671875 0 
L 9.8125 0 
z
" id="DejaVuSans-46"/>
      <path d="M 34.1875 63.1875 
L 20.796875 26.90625 
L 47.609375 26.90625 
z
M 28.609375 72.90625 
L 39.796875 72.90625 
L 67.578125 0 
L 57.328125 0 
L 50.6875 18.703125 
L 17.828125 18.703125 
L 11.1875 0 
L 0.78125 0 
z
" id="DejaVuSans-41"/>
     </defs>
     <g transform="translate(70.537802 74.064396)scale(0.12 -0.12)">
      <use xlink:href="#DejaVuSans-43"/>
      <use x="69.824219" xlink:href="#DejaVuSans-45"/>
      <use x="133.007812" xlink:href="#DejaVuSans-46"/>
      <use x="190.386719" xlink:href="#DejaVuSans-41"/>
      <use x="258.794922" xlink:href="#DejaVuSans-53"/>
     </g>
    </g>
   </g>
   <g id="text_6">
    <g clip-path="url(#p182c1d55bc)">
     <!-- NonAc -->
     <defs>
      <path d="M 9.8125 72.90625 
L 23.09375 72.90625 
L 55.421875 11.921875 
L 55.421875 72.90625 
L 64.984375 72.90625 
L 64.984375 0 
L 51.703125 0 
L 19.390625 60.984375 
L 19.390625 0 
L 9.8125 0 
z
" id="DejaVuSans-4e"/>
      <path d="M 54.890625 33.015625 
L 54.890625 0 
L 45.90625 0 
L 45.90625 32.71875 
Q 45.90625 40.484375 42.875 44.328125 
Q 39.84375 48.1875 33.796875 48.1875 
Q 26.515625 48.1875 22.3125 43.546875 
Q 18.109375 38.921875 18.109375 30.90625 
L 18.109375 0 
L 9.078125 0 
L 9.078125 54.6875 
L 18.109375 54.6875 
L 18.109375 46.1875 
Q 21.34375 51.125 25.703125 53.5625 
Q 30.078125 56 35.796875 56 
Q 45.21875 56 50.046875 50.171875 
Q 54.890625 44.34375 54.890625 33.015625 
z
" id="DejaVuSans-6e"/>
      <path d="M 48.78125 52.59375 
L 48.78125 44.1875 
Q 44.96875 46.296875 41.140625 47.34375 
Q 37.3125 48.390625 33.40625 48.390625 
Q 24.65625 48.390625 19.8125 42.84375 
Q 14.984375 37.3125 14.984375 27.296875 
Q 14.984375 17.28125 19.8125 11.734375 
Q 24.65625 6.203125 33.40625 6.203125 
Q 37.3125 6.203125 41.140625 7.25 
Q 44.96875 8.296875 48.78125 10.40625 
L 48.78125 2.09375 
Q 45.015625 0.34375 40.984375 -0.53125 
Q 36.96875 -1.421875 32.421875 -1.421875 
Q 20.0625 -1.421875 12.78125 6.34375 
Q 5.515625 14.109375 5.515625 27.296875 
Q 5.515625 40.671875 12.859375 48.328125 
Q 20.21875 56 33.015625 56 
Q 37.15625 56 41.109375 55.140625 
Q 45.0625 54.296875 48.78125 52.59375 
z
" id="DejaVuSans-63"/>
     </defs>
     <g transform="translate(162.892293 107.044301)scale(0.12 -0.12)">
      <use xlink:href="#DejaVuSans-4e"/>
      <use x="74.804688" xlink:href="#DejaVuSans-6f"/>
      <use x="135.986328" xlink:href="#DejaVuSans-6e"/>
      <use x="199.365234" xlink:href="#DejaVuSans-41"/>
      <use x="267.757812" xlink:href="#DejaVuSans-63"/>
     </g>
    </g>
   </g>
   <g id="legend_1">
    <g id="patch_38">
     <path d="M 64.6 302.584 
L 198.340625 302.584 
Q 200.340625 302.584 200.340625 300.584 
L 200.340625 257.549625 
Q 200.340625 255.549625 198.340625 255.549625 
L 64.6 255.549625 
Q 62.6 255.549625 62.6 257.549625 
L 62.6 300.584 
Q 62.6 302.584 64.6 302.584 
z
" style="fill:#ffffff;opacity:0.8;stroke:#cccccc;stroke-linejoin:miter;"/>
    </g>
    <g id="patch_39">
     <path d="M 66.6 267.148062 
L 86.6 267.148062 
L 86.6 260.148062 
L 66.6 260.148062 
z
" style="fill:#0000ff;stroke:#0000ff;stroke-linejoin:miter;"/>
    </g>
    <g id="text_7">
     <!-- University -->
     <defs>
      <path d="M 9.421875 54.6875 
L 18.40625 54.6875 
L 18.40625 0 
L 9.421875 0 
z
M 9.421875 75.984375 
L 18.40625 75.984375 
L 18.40625 64.59375 
L 9.421875 64.59375 
z
" id="DejaVuSans-69"/>
      <path d="M 2.984375 54.6875 
L 12.5 54.6875 
L 29.59375 8.796875 
L 46.6875 54.6875 
L 56.203125 54.6875 
L 35.6875 0 
L 23.484375 0 
z
" id="DejaVuSans-76"/>
      <path d="M 56.203125 29.59375 
L 56.203125 25.203125 
L 14.890625 25.203125 
Q 15.484375 15.921875 20.484375 11.0625 
Q 25.484375 6.203125 34.421875 6.203125 
Q 39.59375 6.203125 44.453125 7.46875 
Q 49.3125 8.734375 54.109375 11.28125 
L 54.109375 2.78125 
Q 49.265625 0.734375 44.1875 -0.34375 
Q 39.109375 -1.421875 33.890625 -1.421875 
Q 20.796875 -1.421875 13.15625 6.1875 
Q 5.515625 13.8125 5.515625 26.8125 
Q 5.515625 40.234375 12.765625 48.109375 
Q 20.015625 56 32.328125 56 
Q 43.359375 56 49.78125 48.890625 
Q 56.203125 41.796875 56.203125 29.59375 
z
M 47.21875 32.234375 
Q 47.125 39.59375 43.09375 43.984375 
Q 39.0625 48.390625 32.421875 48.390625 
Q 24.90625 48.390625 20.390625 44.140625 
Q 15.875 39.890625 15.1875 32.171875 
z
" id="DejaVuSans-65"/>
      <path d="M 41.109375 46.296875 
Q 39.59375 47.171875 37.8125 47.578125 
Q 36.03125 48 33.890625 48 
Q 26.265625 48 22.1875 43.046875 
Q 18.109375 38.09375 18.109375 28.8125 
L 18.109375 0 
L 9.078125 0 
L 9.078125 54.6875 
L 18.109375 54.6875 
L 18.109375 46.1875 
Q 20.953125 51.171875 25.484375 53.578125 
Q 30.03125 56 36.53125 56 
Q 37.453125 56 38.578125 55.875 
Q 39.703125 55.765625 41.0625 55.515625 
z
" id="DejaVuSans-72"/>
      <path d="M 44.28125 53.078125 
L 44.28125 44.578125 
Q 40.484375 46.53125 36.375 47.5 
Q 32.28125 48.484375 27.875 48.484375 
Q 21.1875 48.484375 17.84375 46.4375 
Q 14.5 44.390625 14.5 40.28125 
Q 14.5 37.15625 16.890625 35.375 
Q 19.28125 33.59375 26.515625 31.984375 
L 29.59375 31.296875 
Q 39.15625 29.25 43.1875 25.515625 
Q 47.21875 21.78125 47.21875 15.09375 
Q 47.21875 7.46875 41.1875 3.015625 
Q 35.15625 -1.421875 24.609375 -1.421875 
Q 20.21875 -1.421875 15.453125 -0.5625 
Q 10.6875 0.296875 5.421875 2 
L 5.421875 11.28125 
Q 10.40625 8.6875 15.234375 7.390625 
Q 20.0625 6.109375 24.8125 6.109375 
Q 31.15625 6.109375 34.5625 8.28125 
Q 37.984375 10.453125 37.984375 14.40625 
Q 37.984375 18.0625 35.515625 20.015625 
Q 33.0625 21.96875 24.703125 23.78125 
L 21.578125 24.515625 
Q 13.234375 26.265625 9.515625 29.90625 
Q 5.8125 33.546875 5.8125 39.890625 
Q 5.8125 47.609375 11.28125 51.796875 
Q 16.75 56 26.8125 56 
Q 31.78125 56 36.171875 55.265625 
Q 40.578125 54.546875 44.28125 53.078125 
z
" id="DejaVuSans-73"/>
      <path d="M 18.3125 70.21875 
L 18.3125 54.6875 
L 36.8125 54.6875 
L 36.8125 47.703125 
L 18.3125 47.703125 
L 18.3125 18.015625 
Q 18.3125 11.328125 20.140625 9.421875 
Q 21.96875 7.515625 27.59375 7.515625 
L 36.8125 7.515625 
L 36.8125 0 
L 27.59375 0 
Q 17.1875 0 13.234375 3.875 
Q 9.28125 7.765625 9.28125 18.015625 
L 9.28125 47.703125 
L 2.6875 47.703125 
L 2.6875 54.6875 
L 9.28125 54.6875 
L 9.28125 70.21875 
z
" id="DejaVuSans-74"/>
      <path d="M 32.171875 -5.078125 
Q 28.375 -14.84375 24.75 -17.8125 
Q 21.140625 -20.796875 15.09375 -20.796875 
L 7.90625 -20.796875 
L 7.90625 -13.28125 
L 13.1875 -13.28125 
Q 16.890625 -13.28125 18.9375 -11.515625 
Q 21 -9.765625 23.484375 -3.21875 
L 25.09375 0.875 
L 2.984375 54.6875 
L 12.5 54.6875 
L 29.59375 11.921875 
L 46.6875 54.6875 
L 56.203125 54.6875 
z
" id="DejaVuSans-79"/>
     </defs>
     <g transform="translate(94.6 267.148062)scale(0.1 -0.1)">
      <use xlink:href="#DejaVuSans-55"/>
      <use x="73.193359" xlink:href="#DejaVuSans-6e"/>
      <use x="136.572266" xlink:href="#DejaVuSans-69"/>
      <use x="164.355469" xlink:href="#DejaVuSans-76"/>
      <use x="223.535156" xlink:href="#DejaVuSans-65"/>
      <use x="285.058594" xlink:href="#DejaVuSans-72"/>
      <use x="326.171875" xlink:href="#DejaVuSans-73"/>
      <use x="378.271484" xlink:href="#DejaVuSans-69"/>
      <use x="406.054688" xlink:href="#DejaVuSans-74"/>
      <use x="445.263672" xlink:href="#DejaVuSans-79"/>
     </g>
    </g>
    <g id="patch_40">
     <path d="M 66.6 281.826188 
L 86.6 281.826188 
L 86.6 274.826188 
L 66.6 274.826188 
z
" style="fill:#008000;stroke:#008000;stroke-linejoin:miter;"/>
    </g>
    <g id="text_8">
     <!-- Hosting Partner -->
     <defs>
      <path d="M 45.40625 27.984375 
Q 45.40625 37.75 41.375 43.109375 
Q 37.359375 48.484375 30.078125 48.484375 
Q 22.859375 48.484375 18.828125 43.109375 
Q 14.796875 37.75 14.796875 27.984375 
Q 14.796875 18.265625 18.828125 12.890625 
Q 22.859375 7.515625 30.078125 7.515625 
Q 37.359375 7.515625 41.375 12.890625 
Q 45.40625 18.265625 45.40625 27.984375 
z
M 54.390625 6.78125 
Q 54.390625 -7.171875 48.1875 -13.984375 
Q 42 -20.796875 29.203125 -20.796875 
Q 24.46875 -20.796875 20.265625 -20.09375 
Q 16.0625 -19.390625 12.109375 -17.921875 
L 12.109375 -9.1875 
Q 16.0625 -11.328125 19.921875 -12.34375 
Q 23.78125 -13.375 27.78125 -13.375 
Q 36.625 -13.375 41.015625 -8.765625 
Q 45.40625 -4.15625 45.40625 5.171875 
L 45.40625 9.625 
Q 42.625 4.78125 38.28125 2.390625 
Q 33.9375 0 27.875 0 
Q 17.828125 0 11.671875 7.65625 
Q 5.515625 15.328125 5.515625 27.984375 
Q 5.515625 40.671875 11.671875 48.328125 
Q 17.828125 56 27.875 56 
Q 33.9375 56 38.28125 53.609375 
Q 42.625 51.21875 45.40625 46.390625 
L 45.40625 54.6875 
L 54.390625 54.6875 
z
" id="DejaVuSans-67"/>
      <path id="DejaVuSans-20"/>
      <path d="M 19.671875 64.796875 
L 19.671875 37.40625 
L 32.078125 37.40625 
Q 38.96875 37.40625 42.71875 40.96875 
Q 46.484375 44.53125 46.484375 51.125 
Q 46.484375 57.671875 42.71875 61.234375 
Q 38.96875 64.796875 32.078125 64.796875 
z
M 9.8125 72.90625 
L 32.078125 72.90625 
Q 44.34375 72.90625 50.609375 67.359375 
Q 56.890625 61.8125 56.890625 51.125 
Q 56.890625 40.328125 50.609375 34.8125 
Q 44.34375 29.296875 32.078125 29.296875 
L 19.671875 29.296875 
L 19.671875 0 
L 9.8125 0 
z
" id="DejaVuSans-50"/>
      <path d="M 34.28125 27.484375 
Q 23.390625 27.484375 19.1875 25 
Q 14.984375 22.515625 14.984375 16.5 
Q 14.984375 11.71875 18.140625 8.90625 
Q 21.296875 6.109375 26.703125 6.109375 
Q 34.1875 6.109375 38.703125 11.40625 
Q 43.21875 16.703125 43.21875 25.484375 
L 43.21875 27.484375 
z
M 52.203125 31.203125 
L 52.203125 0 
L 43.21875 0 
L 43.21875 8.296875 
Q 40.140625 3.328125 35.546875 0.953125 
Q 30.953125 -1.421875 24.3125 -1.421875 
Q 15.921875 -1.421875 10.953125 3.296875 
Q 6 8.015625 6 15.921875 
Q 6 25.140625 12.171875 29.828125 
Q 18.359375 34.515625 30.609375 34.515625 
L 43.21875 34.515625 
L 43.21875 35.40625 
Q 43.21875 41.609375 39.140625 45 
Q 35.0625 48.390625 27.6875 48.390625 
Q 23 48.390625 18.546875 47.265625 
Q 14.109375 46.140625 10.015625 43.890625 
L 10.015625 52.203125 
Q 14.9375 54.109375 19.578125 55.046875 
Q 24.21875 56 28.609375 56 
Q 40.484375 56 46.34375 49.84375 
Q 52.203125 43.703125 52.203125 31.203125 
z
" id="DejaVuSans-61"/>
     </defs>
     <g transform="translate(94.6 281.826188)scale(0.1 -0.1)">
      <use xlink:href="#DejaVuSans-48"/>
      <use x="75.195312" xlink:href="#DejaVuSans-6f"/>
      <use x="136.376953" xlink:href="#DejaVuSans-73"/>
      <use x="188.476562" xlink:href="#DejaVuSans-74"/>
      <use x="227.685547" xlink:href="#DejaVuSans-69"/>
      <use x="255.46875" xlink:href="#DejaVuSans-6e"/>
      <use x="318.847656" xlink:href="#DejaVuSans-67"/>
      <use x="382.324219" xlink:href="#DejaVuSans-20"/>
      <use x="414.111328" xlink:href="#DejaVuSans-50"/>
      <use x="474.351562" xlink:href="#DejaVuSans-61"/>
      <use x="535.630859" xlink:href="#DejaVuSans-72"/>
      <use x="576.744141" xlink:href="#DejaVuSans-74"/>
      <use x="615.953125" xlink:href="#DejaVuSans-6e"/>
      <use x="679.332031" xlink:href="#DejaVuSans-65"/>
      <use x="740.855469" xlink:href="#DejaVuSans-72"/>
     </g>
    </g>
    <g id="patch_41">
     <path d="M 66.6 296.504312 
L 86.6 296.504312 
L 86.6 289.504312 
L 66.6 289.504312 
z
" style="fill:#ff0000;stroke:#ff0000;stroke-linejoin:miter;"/>
    </g>
    <g id="text_9">
     <!-- Non-Hosting Partner -->
     <defs>
      <path d="M 4.890625 31.390625 
L 31.203125 31.390625 
L 31.203125 23.390625 
L 4.890625 23.390625 
z
" id="DejaVuSans-2d"/>
     </defs>
     <g transform="translate(94.6 296.504312)scale(0.1 -0.1)">
      <use xlink:href="#DejaVuSans-4e"/>
      <use x="74.804688" xlink:href="#DejaVuSans-6f"/>
      <use x="135.986328" xlink:href="#DejaVuSans-6e"/>
      <use x="199.365234" xlink:href="#DejaVuSans-2d"/>
      <use x="235.449219" xlink:href="#DejaVuSans-48"/>
      <use x="310.644531" xlink:href="#DejaVuSans-6f"/>
      <use x="371.826172" xlink:href="#DejaVuSans-73"/>
      <use x="423.925781" xlink:href="#DejaVuSans-74"/>
      <use x="463.134766" xlink:href="#DejaVuSans-69"/>
      <use x="490.917969" xlink:href="#DejaVuSans-6e"/>
      <use x="554.296875" xlink:href="#DejaVuSans-67"/>
      <use x="617.773438" xlink:href="#DejaVuSans-20"/>
      <use x="649.560547" xlink:href="#DejaVuSans-50"/>
      <use x="709.800781" xlink:href="#DejaVuSans-61"/>
      <use x="771.080078" xlink:href="#DejaVuSans-72"/>
      <use x="812.193359" xlink:href="#DejaVuSans-74"/>
      <use x="851.402344" xlink:href="#DejaVuSans-6e"/>
      <use x="914.78125" xlink:href="#DejaVuSans-65"/>
      <use x="976.304688" xlink:href="#DejaVuSans-72"/>
     </g>
    </g>
   </g>
  </g>
 </g>
 <defs>
  <clipPath id="p182c1d55bc">
   <rect height="266.112" width="357.12" x="57.6" y="41.472"/>
  </clipPath>
 </defs>
</svg>
